<?xml version="1.0" encoding="UTF-8" standalone="no"?>
<svg
   id="Cirkel"
   viewBox="0 0 589.34005 563.81998"
   version="1.1"
   sodipodi:docname="logo.svg"
   width="589.34003"
   height="563.82001"
   inkscape:export-filename="logo.png"
   inkscape:export-xdpi="96"
   inkscape:export-ydpi="96"
   inkscape:version="1.3.2 (091e20e, 2023-11-25)"
   xmlns:inkscape="http://www.inkscape.org/namespaces/inkscape"
   xmlns:sodipodi="http://sodipodi.sourceforge.net/DTD/sodipodi-0.dtd"
   xmlns="http://www.w3.org/2000/svg"
   xmlns:svg="http://www.w3.org/2000/svg">
  <sodipodi:namedview
     id="namedview160"
     pagecolor="#ffffff"
     bordercolor="#000000"
     borderopacity="0.25"
     inkscape:showpageshadow="2"
     inkscape:pageopacity="0.0"
     inkscape:pagecheckerboard="true"
     inkscape:deskcolor="#d1d1d1"
     inkscape:zoom="0.39645207"
     inkscape:cx="297.64001"
     inkscape:cy="279.9834"
     inkscape:window-width="1512"
     inkscape:window-height="945"
     inkscape:window-x="0"
     inkscape:window-y="37"
     inkscape:window-maximized="0"
     inkscape:current-layer="Cirkel" />
  <defs
     id="defs1">
    <style
       id="style1">
      .cls-1, .cls-2, .cls-3 {
        stroke-width: 3.35px;
      }

      .cls-1, .cls-2, .cls-3, .cls-4, .cls-5, .cls-6, .cls-7, .cls-8, .cls-9, .cls-10, .cls-11, .cls-12, .cls-13, .cls-14, .cls-15, .cls-16, .cls-17, .cls-18, .cls-19, .cls-20, .cls-21 {
        fill: none;
        stroke-linecap: round;
        stroke-linejoin: round;
      }

      .cls-1, .cls-11, .cls-14 {
        stroke: #000002;
      }

      .cls-2, .cls-7, .cls-9, .cls-12 {
        stroke: #ffdbdd;
      }

      .cls-3, .cls-5, .cls-6 {
        stroke: #dac8be;
      }

      .cls-22 {
        clip-path: url(#clippath);
      }

      .cls-23, .cls-24 {
        fill: #fff;
      }

      .cls-4 {
        stroke-width: 21.91px;
      }

      .cls-4, .cls-16, .cls-17 {
        stroke: #c1c0be;
      }

      .cls-5 {
        stroke-width: 8.38px;
      }

      .cls-6 {
        stroke-width: 34.53px;
      }

      .cls-7, .cls-8, .cls-14 {
        stroke-width: 4.12px;
      }

      .cls-8, .cls-10, .cls-13 {
        stroke: #fff;
      }

      .cls-9, .cls-10, .cls-15, .cls-16 {
        stroke-width: 4.23px;
      }

      .cls-11, .cls-12, .cls-13 {
        stroke-width: 4.35px;
      }

      .cls-15 {
        stroke: #000;
      }

      .cls-17 {
        stroke-width: 6.87px;
      }

      .cls-18 {
        stroke: #f0eeed;
      }

      .cls-18, .cls-19, .cls-20, .cls-21 {
        stroke-width: 13.43px;
      }

      .cls-19 {
        stroke: gray;
      }

      .cls-20 {
        stroke: #383838;
      }

      .cls-21 {
        stroke: #b0afae;
      }

      .cls-25 {
        fill: gray;
      }

      .cls-25, .cls-24 {
        stroke-width: 0px;
      }
    </style>
    <clipPath
       id="clippath">
      <ellipse
         class="cls-24"
         cx="331.67999"
         cy="300.01999"
         rx="294.67001"
         ry="281.91"
         id="ellipse1" />
    </clipPath>
  </defs>
  <ellipse
     class="cls-23"
     cx="294.67001"
     cy="281.91"
     rx="294.67001"
     ry="281.91"
     id="ellipse2" />
  <g
     class="cls-22"
     clip-path="url(#clippath)"
     id="g160"
     transform="translate(-37.009979,-18.109985)">
    <g
       id="Nora">
      <path
         class="cls-5"
         d="m -70.89,343.31 c 7.92,-8.62 22.03,-12.27 32.39,-16.67 20.11,-8.53 40.98,-16.32 61.74,-22.95 7.23,-2.3 14.09,-4.12 21.55,-5.27 3.52,-0.54 9.09,-2.48 12.52,-1.5"
         id="path2" />
      <path
         class="cls-5"
         d="m -70.76,344.05 c 3.28,9.6 8.13,18.76 13.56,27.42 3.85,6.14 6.82,12.81 10.87,18.84 4.86,7.22 10.99,13.21 16.57,19.81 6.71,7.95 16.1,18.88 24.74,24.77 2.9,1.98 6.04,2.82 9.19,4.36"
         id="path3" />
      <path
         class="cls-5"
         d="m 4.48,439.43 c 14.84,-11.31 26.86,-24.41 39.16,-38.37 4.28,-4.86 9.09,-9.48 12.85,-14.78 5.92,-8.34 12.88,-15.94 18.63,-24.38 3.25,-4.77 7.26,-11.77 11.85,-15.27"
         id="path4" />
      <path
         class="cls-5"
         d="m 154.97,367.05 c 17.31,-5.87 36.69,-33.17 39.15,-51.04"
         id="path5" />
      <path
         class="cls-5"
         d="m 155.25,366 c -2.45,1.23 -5.54,1.34 -8.28,1.74"
         id="path6" />
      <path
         class="cls-5"
         d="m 89.16,342.46 c 2.25,0.75 3.64,3.03 5.55,4.16 4.47,2.63 8.11,5.59 12.25,8.7 2.78,2.08 6.25,3.24 9.25,5 2.4,1.41 4.07,3.78 6.51,5.12 9.65,5.29 26.02,7.73 34.66,-0.01"
         id="path7" />
      <path
         class="cls-5"
         d="m 329.98,330.23 c 3.66,-3.78 8.46,-6.72 12.13,-10.5 4.29,-4.43 11.26,-17.59 10.14,-23.76 -0.94,-5.11 -8.23,-9.47 -12.48,-11.5 -2.59,-1.24 -5.08,-3.75 -8,-4.44 -7.72,-1.8 -15.05,-4.34 -22.9,-5.79 -6.31,-1.16 -13.25,0.33 -19.64,-0.48 -18.34,-2.32 -36.34,-1.44 -54.31,1.85 -2.21,0.4 -4.08,1.83 -6.11,2.67 -4.4,1.84 -9.13,3.24 -13.2,5.76 -3.72,2.32 -6.89,5.38 -10.99,7.51"
         id="path8" />
      <path
         class="cls-5"
         d="m 330.76,328.4 c 0.12,-0.24 1.51,-1.94 1.5,-1.96 -0.8,-1.05 -2.34,1.2 -3.49,1.84 -0.19,0.11 -0.69,0.52 -0.52,0.39 0.22,-0.17 3.27,-2.13 3.49,-1.84 0.03,0.04 -4.56,3.4 -5.08,3.33 -0.19,-0.03 3.35,-1.96 3.32,-1.71 -0.22,1.64 -4.09,2.84 -4.09,2.84 0,0 2.44,-2.86 3.19,-1.88 0.25,0.32 -2.09,1.87 -2.28,2.01 -0.69,0.53 1.5,-0.87 2.19,-1.4 0.34,-0.26 -0.69,0.52 -1.03,0.79 -0.92,0.7 -1.96,0.96 -2.97,1.45 -2.98,1.46 -6.54,1.73 -9.53,3.19 -8.95,4.37 -18.17,5.98 -27.79,7.05 -15,1.67 -28.96,-3.45 -43.54,-5.42 -2.78,-0.38 -5.1,-2.44 -7.76,-3.05 -6.71,-1.53 -13.76,-4.14 -19.82,-7.46 -6.48,-3.55 -15.17,-5.28 -19.89,-11.48"
         id="path9" />
      <path
         class="cls-5"
         d="m 165.64,229.36 c 11.2,9.32 21.52,25.16 26.59,38.62 2.24,5.95 5.23,11.89 6.18,18.29 0.42,2.87 0.04,5.75 0.29,8.53"
         id="path10" />
      <path
         class="cls-5"
         d="m 169.68,221.93 c 5.57,-4.32 9.5,-10.01 14.11,-15.27 8.57,-9.78 17.22,-18.53 24.37,-29.45 1.28,-1.95 3.38,-3.28 4.59,-5.2 5.37,-8.54 9.89,-18.07 14.2,-27.35 2.72,-5.86 6.91,-11.32 9.09,-17.42 1.46,-4.1 4.03,-9.69 4.51,-14.04 0.18,-1.66 0.03,-3.81 0.5,-5.4 1.01,-3.36 1.8,-9.17 1.01,-12.62 -1.34,-5.82 -6.43,-10.55 -12.08,-11.8 -2.07,-0.46 -4.29,0.9 -6.25,1.22 -12.33,1.99 -23.02,10.84 -31.92,19.06 -23.42,21.63 -43.14,47.03 -54.79,77.33 -2.75,7.16 -6.66,15.31 -7.51,23.02"
         id="path11" />
      <path
         class="cls-5"
         d="m 126.5,206.02 c -4.59,-2.71 -18.32,-0.9 -23.66,-0.52 -18.21,1.31 -41.84,11.1 -46.15,31.17 -1.75,8.14 -1.8,15.28 -1.2,23.61 0.54,7.45 0.59,29.51 7.88,33.81"
         id="path12" />
      <path
         class="cls-6"
         d="m 280.28,294.7 c 0.59,0.32 5.64,3.29 5.93,1.85 0.14,-0.66 -8.57,-1.06 -8.99,-1.08 -7.08,-0.46 -14.67,2.35 -21.86,3.22 -0.98,0.12 -2.94,1.04 -3.83,0.85 -0.77,-0.16 1.34,-0.83 2.02,-1.23 1.29,-0.75 2.69,-1.87 4.04,-2.45 4.56,-1.99 9.69,-1.47 14.48,-2.33 0.74,-0.13 5.58,-1.89 4.47,-2.11 -3.23,-0.66 -7.66,1.91 -10.94,2.3 -6.1,0.73 -13.52,-2.47 -19.44,-1.21 -3.59,0.77 -7.41,2.68 -10.71,4.24 -3.84,1.81 -7.99,2.49 -11.92,3.99 -1.28,0.49 -2.5,1.05 -3.74,1.63 -0.6,0.28 -2.42,0.21 -1.89,0.62 1.59,1.25 5.26,1.55 7.24,2.87 13.54,9.04 29.78,10.64 45.37,13.84"
         id="path13" />
      <path
         class="cls-6"
         d="m 236.57,315.9 c -1.34,-0.27 2.56,1 3.9,1.3 3.73,0.84 7.47,1.84 11.29,2.19 10.57,0.97 23.05,0.39 33.27,-1.64 3.64,-0.73 7.5,0.23 11.13,-0.75 1.28,-0.34 2.27,-1.39 3.52,-1.8 0.25,-0.08 0.97,-0.26 0.78,-0.09 -7.63,6.53 -22.01,4.81 -31.17,4.34 -2.64,-0.13 -9.87,-0.82 -12.12,0.67 -0.17,0.11 -0.26,0.45 -0.12,0.61 2.52,2.95 12.17,2.56 15.53,3.05 14.97,2.21 31.39,-1.71 44.52,-7.91 4.39,-2.07 14.37,-6.58 13.61,-12.86 -0.16,-1.3 -1.24,-1.63 -1.49,-2.58 -0.46,-1.72 5.37,-0.54 3.83,-0.85"
         id="path14" />
      <path
         class="cls-6"
         d="m 327.31,301.05 c 2.24,-1.06 -10.79,-4.82 -12.22,-5.03 -5.65,-0.83 -11.53,-0.28 -17.02,-0.71 -3.56,-0.28 -6.81,-1.61 -10.42,-1.5 -5.6,0.16 -12.99,0.88 -18.15,2.97 -2.79,1.13 -5.04,2.76 -8.04,3.53 -9.15,2.33 -18.59,2.96 -27.76,4.91 -7.54,1.61 -14.83,3.56 -22.5,4.48"
         id="path15" />
      <path
         class="cls-6"
         d="m 224.1,101.04 c -2.77,2.21 -4.67,5.61 -7.05,8.21 -6.8,7.45 -17.53,10.22 -24.21,18.16 -17.25,20.51 -33.6,42.64 -44.32,67.31 -4.02,9.26 -4.75,20.85 -7.73,30.57"
         id="path16" />
      <path
         class="cls-6"
         d="m 227.44,103.89 c -1.95,1.82 -2.73,4.47 -4.5,6.41 -11.11,12.16 -18.6,27.63 -27.61,41.52"
         id="path17" />
      <path
         class="cls-6"
         d="m 225.35,110.83 c -2.81,4.34 -3.24,9.64 -5.77,14.23 -5.69,10.32 -12.08,21.33 -19.47,30.56 -8.65,10.81 -16.44,22.32 -25.22,33.05 -6.05,7.39 -13.47,13.32 -19.51,20.51 -7.94,9.44 -13.78,20.2 -20.51,30.58"
         id="path18" />
      <path
         class="cls-6"
         d="m 186.89,177.1 c -8.89,6.28 -13.76,16.46 -20.26,24.86 -3.58,4.62 -7.49,8.89 -10.68,13.81 -3.62,5.58 -6.22,13.74 -12.24,17.28"
         id="path19" />
      <path
         class="cls-6"
         d="m 172.08,201.01 c -5.89,6.26 -11.84,12.53 -18.34,18.17 -4.03,3.5 -8.09,6.37 -11.36,10.6"
         id="path20" />
      <path
         class="cls-6"
         d="m -42.04,352.1 c -0.09,-0.02 13.87,-5.08 17.18,-6.27 5.76,-2.07 10.95,-5.31 16.73,-7.27 5.47,-1.85 11.59,-1.84 17.08,-3.81 2.6,-0.94 5.92,-2.58 8.33,-3.98 0.95,-0.55 2.9,-2.44 3.01,-1.35 0.09,0.9 -7.27,2.63 -8.09,2.91 -9.39,3.18 -19.72,4.14 -28.94,7.45 -9.27,3.33 -16.01,8.91 -25.75,11.32 -1.33,0.33 -9.9,2.93 -9.37,0.59 0.73,-3.22 15.3,-6.14 18.11,-7.41 19.5,-8.76 41.17,-12.8 61.16,-20.47 8.62,-3.31 18.21,-2.43 26.69,-5.48 2.54,-0.91 4.94,-2.63 7.71,-3.22 1.13,-0.24 4.44,-0.97 3.46,-0.35 -4.04,2.55 -19.58,6.59 -24.55,5.96 -0.24,-0.03 -6.64,-0.09 -6.67,-0.38 -0.07,-0.71 10.07,-1.69 10.3,-1.73 5.02,-0.9 9.62,-2.15 14.24,-4.23 1.2,-0.54 -2.42,1.08 -3.7,1.42 -4.17,1.1 -8.84,1.5 -13.14,1.32 -1.32,-0.05 -4.74,0.37 -3.91,-0.66 1.98,-2.43 34.86,-4.2 14.45,-2.15"
         id="path21" />
      <path
         class="cls-6"
         d="m 88.71,315.21 c -9.89,0.28 -15.53,12.02 -24.54,16.44 -6.94,3.4 -14.35,5.55 -21.05,9.45 -10.68,6.21 -20.35,12.61 -31.8,17.17 -6.35,2.52 -11.69,7.52 -18.22,9.86 -4.13,1.48 -8.97,5.79 -13.34,6.23 -1.66,0.17 -5.26,-1.79 -7.19,-2.07 -4.62,-0.67 -9.78,-11.68 -12.76,-5.35 -1.23,2.62 3.18,5.66 4.6,7.57 5.8,7.79 11.51,15.82 17.71,23.36 5.53,6.73 7.86,11.47 16.5,14.76 0.95,0.36 3.38,2.34 3.49,3.49 0.07,0.73 -0.95,2.71 -0.48,2.14 2.92,-3.57 3.42,-10.1 5.91,-14.21 4.31,-7.14 8.98,-14.88 14.27,-21.34 3.55,-4.34 7.16,-8.56 10.19,-13.25 1.06,-1.64 2.05,-2.88 2.66,-4.81 0.11,-0.35 0.59,-1.2 0.24,-1.07 -10.2,3.67 -18.97,14.89 -27.55,21.28 -0.95,0.71 -9.35,5.53 -9.51,6.19 -0.22,0.97 10.11,5.88 11.59,7.57 3.2,3.65 1.85,7.05 -0.72,10.2 -0.31,0.38 -0.93,1.14 -0.93,1.14 0,0 1.24,-1.52 1.87,-2.28 2.32,-2.84 5.97,-4.86 8.67,-7.51 6.66,-6.52 11.43,-14.76 17.35,-22 12.4,-15.17 29.43,-29.14 38.63,-46.49 2.49,-4.7 19.93,-16.62 14.41,-16.47 z"
         id="path22" />
      <path
         class="cls-6"
         d="m 131.65,228.13 c 4.53,-2.03 -8.7,-3.01 -11.48,-3.04 -3.56,-0.04 -6.73,1.68 -10.23,2.43 -2.01,0.43 -3.67,-0.33 -5.6,-0.14 -0.69,0.07 -2.66,0.58 -2.07,0.21 5.03,-3.18 14.08,1.58 19.05,-1.57 0.62,-0.39 -2.33,-0.91 -5.36,-1.21 -3.48,-0.34 -6.2,-0.77 -9.82,-0.41 -5.42,0.55 -27.31,8.5 -29.76,13.12 -0.26,0.49 -0.49,22.88 -0.26,25.17 0.21,2.11 0.9,4.86 1.39,6.85 0.2,0.8 1.4,2.3 0.59,2.39 -5.85,0.59 -2.41,-19.26 -2.15,-21.44 0.22,-1.84 -0.01,-3.76 -0.56,-5.53 -0.15,-0.49 -1.23,-1.64 -0.83,-1.31 6.03,4.93 -3.5,17.39 -2.31,22.23 0.71,2.88 4.22,4.01 5.23,6.81 0.96,2.67 -0.13,5.69 0.14,8.37 0.92,9.17 5.53,15.31 12.6,21.08"
         id="path23" />
      <path
         class="cls-6"
         d="m 97.85,260.16 c -1.17,-2.6 5.01,-5.3 6.36,-6.23 10.73,-7.37 17.85,-9.89 30.7,-7.28 2.03,0.41 5.38,0.18 5.81,2.21 1.67,7.78 -24.6,15.55 -29.49,15.89 -1.82,0.12 -7.17,0.21 -6.95,-3.14 1.19,-18.23 41.54,-13.43 43.74,0.84 2.51,16.28 -29.54,23.89 -39.89,27.06 -2.89,0.89 -7.84,4.41 -8.92,1.6 -1.88,-4.89 11.54,-15.9 15,-17.57 9.58,-4.64 27.59,-4.64 34.1,5.65 4.69,7.41 -3.73,16.28 -9.57,19.47 -8.52,4.66 -21.24,7.91 -30.94,8.35 -4.25,0.19 -10.74,1.29 -12.48,-2.59 -2.28,-5.07 9.02,-13.08 11.82,-14.46 14.37,-7.06 31.99,-3.05 43.98,6.75 1.82,1.48 3.87,3.21 4.39,5.49 1.74,7.63 -12.25,15.69 -16.69,18.09 -9.46,5.12 -32.44,13.27 -39.52,-0.57 -4.34,-8.47 4.71,-14.19 11.3,-16.15 10.45,-3.12 29.06,-5.35 38.59,1.71 5.07,3.75 -6.7,12.83 -8.36,14.11 -11.3,8.71 -28.55,9.71 -36.34,-3.68"
         id="path24" />
      <path
         class="cls-6"
         d="m 95.87,323.92 c -0.89,-0.73 18.68,9.07 19.43,5.73 1.73,-7.66 -18.99,-9.13 -9.54,2.36 5.1,6.21 20.17,9.5 27.74,11.88 0.8,0.25 10.01,1.29 10.13,0.03 0.15,-1.54 -19.88,-6.89 -22.82,-4.69 -1.96,1.46 4.04,5.41 5.15,6.12 4.28,2.69 11.11,4.12 16.08,3.62 13.86,-1.39 28.11,-21.56 31.9,-33.59 1.74,-5.53 2.64,-10.44 4.69,-15.84 0.69,-1.8 0.56,-2.69 -0.11,-4.53 -0.12,-0.34 -0.73,-1.23 -0.45,-1 2.19,1.79 0.43,12.53 -2.21,12.79 -1.72,0.17 -1.8,-1.68 -3.15,-0.03"
         id="path25" />
      <path
         class="cls-6"
         d="m 176.57,306.73 c 1.11,-4.92 8.95,-4.71 10.16,-10.1 1.06,-4.71 -3.04,-4.76 -5.29,-7.5 -1.59,-1.94 -0.7,-4.23 1,-0.45"
         id="path26" />
      <path
         class="cls-6"
         d="m 162.23,261.37 c -2.56,-0.58 -4.09,-7.91 -6.26,-10.2 -0.79,-0.83 -1.78,-1.45 -2.66,-2.18 -0.63,-0.52 -2.54,-2.07 -1.9,-1.56 3.97,3.24 9.22,5.58 12.18,9.95 2.05,3.04 1.87,7.25 3.5,10.47 1.05,2.08 2.13,4.21 3.08,6.33 0.15,0.33 0.78,0.85 0.45,1 -1.93,0.87 -5.46,-7.19 -6.06,-8.12 -3.25,-5.14 -3.28,-9.92 -5.37,-15.18 -1.51,-3.79 -4.95,-5.15 -7.44,-7.98 -0.74,-0.85 0.89,-3.79 1.73,-3.67 6.57,0.96 8.1,9.6 10.83,13.93 3.43,5.42 8.48,9.92 12.04,15.55 1.35,2.14 0.34,3.41 0.56,5.53 0.14,1.36 1.5,2.59 1.8,4.01 1.27,5.94 -2.18,14.71 -7.7,17.19"
         id="path27" />
      <path
         class="cls-24"
         d="m 264.93,294.15 c -0.69,-0.81 -1.96,-1.04 -2.96,-1.2 -2.22,-0.35 -4.5,-0.4 -6.74,-0.47 -0.81,-0.02 -1.61,-0.05 -2.42,-0.06 -2.53,-0.05 -5.06,-0.06 -7.59,-0.07 -1.43,0 -2.87,-0.05 -4.3,0.02 -2.02,0.09 -4,0.38 -5.97,0.82 -5.03,1.13 -9.73,3.27 -14.45,5.27 -2.26,0.96 -4.53,1.86 -6.84,2.7 -1.39,0.5 -2.11,2.01 -1.6,3.4 0.5,1.39 2.05,2.11 3.43,1.61 2.79,-1.02 5.52,-2.13 8.25,-3.3 4.03,-1.74 8.08,-3.55 12.37,-4.57 1.48,-0.35 2.98,-0.58 4.5,-0.69 2.49,-0.19 5.04,-0.1 7.54,-0.11 3.65,-0.01 7.32,0 10.96,0.29 0.06,0.02 0.1,0.05 0.16,0.07 0.42,0.1 0.83,0.36 1.21,0.54 0.68,0.32 1.4,0.63 2.17,0.64 2.63,0.03 4,-2.84 2.27,-4.88 z"
         id="path28" />
      <path
         class="cls-24"
         d="m 267.39,314.8 c -0.52,-0.45 -1.2,-0.7 -1.93,-0.65 -1.14,0.08 -2.3,0.11 -3.43,0.24 -1.15,0.14 -2.32,0.38 -3.47,0.6 -3.42,0.64 -6.81,1.59 -10.3,1.77 -1.5,0.08 -3,-0.03 -4.49,-0.17 -1.99,-0.18 -3.97,-0.46 -5.94,-0.8 -6.7,-1.17 -13.19,-3.26 -19.22,-6.42 -1.24,-0.65 -2.79,-0.17 -3.43,1.07 -0.65,1.24 -0.15,2.77 1.09,3.42 6.86,3.6 14.3,5.96 21.93,7.25 3.38,0.57 6.89,1.07 10.33,0.91 3.74,-0.17 7.35,-1.14 11.01,-1.82 1.03,-0.19 2.07,-0.4 3.11,-0.52 1.05,-0.12 2.13,-0.14 3.18,-0.21 1.47,-0.1 2.58,-1.36 2.48,-2.83 -0.05,-0.74 -0.39,-1.4 -0.91,-1.85 z"
         id="path29" />
      <path
         class="cls-24"
         d="m 190.92,132.41 c -0.96,-1.01 -2.56,-1.05 -3.58,-0.09 -6.28,5.96 -11.16,13.06 -16.71,19.66 -5.51,6.55 -11.68,12.67 -15.63,20.36 -2.89,5.63 -4.37,11.76 -6.4,17.72 -0.47,1.39 -0.95,2.81 -1.52,4.17 -0.57,1.37 -1.27,2.7 -1.91,4.05 -0.63,1.34 -0.06,2.93 1.28,3.56 1.34,0.63 2.93,0.06 3.56,-1.28 0.67,-1.42 1.42,-2.82 2.02,-4.27 0.61,-1.46 1.12,-3 1.62,-4.5 1.94,-5.71 3.32,-11.64 6.06,-17.04 3.73,-7.34 9.64,-13.19 14.85,-19.46 5.38,-6.48 10.14,-13.48 16.27,-19.3 1.01,-0.96 1.05,-2.56 0.09,-3.58 z"
         id="path30" />
      <path
         class="cls-24"
         d="m 180.42,168.8 c -0.33,-0.56 -0.87,-0.99 -1.55,-1.16 -1.35,-0.35 -2.74,0.45 -3.1,1.81 -3.94,15.04 -11.53,28.89 -21.69,40.63 -0.97,1.12 -0.84,2.8 0.28,3.77 1.12,0.97 2.8,0.84 3.77,-0.28 10.69,-12.41 18.41,-26.97 22.55,-42.83 0.18,-0.68 0.07,-1.37 -0.26,-1.93 z"
         id="path31" />
      <path
         class="cls-24"
         d="m 22.46,327.71 c -0.69,-0.78 -1.8,-1.11 -2.84,-0.76 -9.43,3.16 -19.16,5.68 -28.15,10.02 -4.78,2.31 -9.34,5.09 -13.79,7.99 -8.86,5.78 -17.22,12.31 -25.62,18.73 -1.11,0.85 -1.32,2.43 -0.48,3.54 0.85,1.11 2.43,1.32 3.54,0.48 8.3,-6.33 16.57,-12.76 25.36,-18.42 3.92,-2.52 7.91,-4.92 12.08,-7 9.12,-4.55 19.12,-7.07 28.74,-10.28 1.4,-0.47 2.15,-1.98 1.68,-3.38 -0.12,-0.35 -0.31,-0.66 -0.53,-0.92 z"
         id="path32" />
      <path
         class="cls-24"
         d="m 48.16,361.08 c -0.18,-0.27 -0.41,-0.52 -0.7,-0.71 -1.17,-0.76 -2.74,-0.43 -3.5,0.73 -4.07,6.25 -8.6,12.18 -13.55,17.76 -12.16,13.67 -26.46,25.24 -40.96,36.32 -1.17,0.9 -1.38,2.57 -0.49,3.74 0.89,1.17 2.57,1.38 3.74,0.49 8.66,-6.64 17.22,-13.44 25.29,-20.79 11.39,-10.38 21.79,-21.81 30.2,-34.75 0.57,-0.88 0.52,-1.98 -0.03,-2.79 z"
         id="path33" />
      <path
         class="cls-1"
         d="m 147.62,318.76 c 0.36,0.07 -2.1,-1.55 -2.59,-1.79 -1.75,-0.86 -6.43,-1.97 -6.87,1.3 -0.58,4.27 5.05,11.17 9.63,9.2 1.4,-0.6 2.34,-4.07 1.76,-5.43 -0.4,-0.93 -2.28,-3.35 -1.93,-3.28 z"
         id="path34" />
      <path
         class="cls-1"
         d="m 143.02,319.49 c -2.17,-2.85 1.9,0.74 1.21,1.37 -0.86,0.79 -4.38,-0.21 -3.43,-1.49 1.48,-1.99 6.35,1.26 5.34,3.14 -0.92,1.72 -7.24,-1.05 -5.94,-2.85 2.33,-3.21 8.73,1.95 8.16,3.61 -1.19,3.46 -7.75,1.09 -6.86,-1.48 0.95,-2.76 5.91,-0.37 5.64,1.6 -0.29,2.15 -5.59,-0.17 -6.03,-1.47"
         id="path35" />
      <path
         class="cls-1"
         d="m 99.52,250.8 c 0.75,0.3 -0.63,-0.67 -0.83,-0.89 -0.74,-0.85 -1.98,-1.41 -2.94,-2 -2.57,-1.59 -7.4,-0.68 -7.35,3.06 0.07,5.08 5.3,11.01 10.48,9.52 2.28,-0.65 3.09,-4 2.42,-6.08 -0.27,-0.84 -0.67,-1.86 -1.2,-2.6 -0.28,-0.4 -1.32,-1.36 -0.89,-1.15 0.28,0.14 0.01,0.03 0.29,0.14 z"
         id="path36" />
      <path
         class="cls-1"
         d="m 92.49,251.79 c -1.92,-2.48 6.76,0.31 5.86,3.12 -0.78,2.43 -10.37,-2.68 -5.53,-4.76 2.31,-0.99 7.82,2.48 6.53,5.27 -1.54,3.34 -11.34,-2.41 -7.58,-5.31 2.77,-2.13 9.31,3.18 7.53,6.07 -3.35,5.42 -12.36,-4.01 -7.82,-6.35 1.2,-0.62 8.85,6.54 7.67,7.75 -1.15,1.18 -6.25,-0.52 -7.06,-1.77 -1.16,-1.78 0.45,-3.97 0.41,-4.02 z"
         id="path37" />
      <path
         class="cls-1"
         d="m 104.38,302.41 c 0,0 -3.4,2.54 -4.06,3.2 -2.91,2.96 -7.76,5.01 -9.36,9.04 -2.87,7.2 4.76,10.83 10.3,6.61"
         id="path38" />
      <path
         class="cls-1"
         d="m 84.48,299.53 c 0.19,-0.39 -1.75,1.57 -2.21,2.25 -1.16,1.7 -1.68,4.6 -0.56,6.48 2.47,4.12 9.6,4.67 13.3,1.86"
         id="path39" />
      <path
         class="cls-1"
         d="m 102.9,303.71 c 1.27,0.28 10.65,0.38 11.11,-0.57 0.84,-1.71 -5.23,-10.3 -6.95,-10.73 -4.77,-1.19 -2.83,5.16 -3.49,7.48 -0.2,0.72 -0.21,1.78 -0.52,2.41 -0.05,0.1 -0.66,0.9 -0.63,0.93 0.31,0.31 0.22,0.42 0.48,0.48 z"
         id="path40" />
      <path
         class="cls-1"
         d="m 105.84,294.91 c 1.45,-1.1 -0.98,1.46 -0.75,0.34 0.42,-1.95 3.74,-0.81 3.54,0.67 -0.15,1.12 -2.53,2.34 -3.53,2.58 -0.16,0.04 -0.48,0.1 -0.5,-0.07 -0.16,-1.41 3.72,-3.31 4.34,-1.51 0.63,1.84 -3.24,5.96 -4.53,3.9 -0.79,-1.26 5.01,-4.03 6.17,-1.9 1.32,2.42 -6.38,4 -5.93,2.95 0.48,-1.13 7,-3.56 7.46,-1.54 0.36,1.56 -2.7,2.15 -3.67,2.24 -0.44,0.04 -1.45,0.18 -1.3,-0.24 0.86,-2.51 3.22,-1.21 4.68,-0.77 1.79,0.54 -0.18,0.2 -1.07,0.36"
         id="path41" />
      <path
         class="cls-2"
         d="m 138.91,340.34 c -2.04,-3.64 -12.54,-7.64 -14.87,-2.31 -3.17,7.25 8.11,19.52 15.23,19.83 5.51,0.24 6.68,-6.15 4.92,-10.04 -0.88,-1.95 -2.22,-3.7 -3.51,-5.39 -0.42,-0.55 -1.41,-1.45 -1.77,-2.09 z"
         id="path42" />
      <path
         class="cls-2"
         d="m 138.23,342.64 c -1.32,-3.08 -4.68,-4.42 -7.7,-5.28 -0.24,-0.07 -3.58,-0.57 -3.55,-0.14 0.08,1.19 7.36,4.38 8.49,4.92 0.11,0.05 3.69,1.8 3.6,1.29 -0.27,-1.4 -8.93,-5.28 -10.35,-5.64 -1.73,-0.44 -0.89,0.47 -1.98,0.68 -0.09,0.02 -1.25,-0.25 -1.27,-0.1 -0.07,0.51 3.93,2.07 4.15,2.18 2.82,1.38 5.64,2.6 8.23,4.41 0.76,0.53 1.25,0.81 2.14,1.1 0.32,0.1 1.24,0.13 0.97,0.33 -0.29,0.22 -2.64,-1.14 -2.99,-1.28 -2.74,-1.06 -5.3,-2.37 -7.82,-3.88 -1.31,-0.78 -2.03,-1.08 -3.48,-1.14 -0.13,0 -1.44,-0.33 -1.44,-0.33 0.52,1.53 10.77,6.31 12.68,7.3 1.25,0.65 2.57,1.08 3.81,1.73 0.56,0.3 2.12,0.64 1.61,1.03 -0.55,0.42 -4.01,-1.48 -4.49,-1.68 -3.37,-1.45 -6.38,-3.52 -9.59,-5.27 -0.12,-0.07 -3.33,-1.79 -3.75,-1.65 -0.48,0.16 0.61,0.81 0.99,1.14 0.94,0.83 1.86,1.68 2.83,2.47 2.88,2.33 6.55,4.59 10.05,5.87 0.74,0.27 3.77,0.44 4.24,1.04 0.3,0.39 -0.99,0 -1.47,-0.06 -0.35,-0.05 -0.71,-0.08 -1.06,-0.14 -1.72,-0.32 -1.81,-0.37 -3.54,-1.22 -2.86,-1.4 -6.75,-3.34 -9.08,-5.54 -0.66,-0.62 -2.56,-3.1 -3.81,-2.67 -0.56,0.19 4,4.34 4.05,4.39 0.47,0.4 0.98,0.75 1.46,1.14 3.13,2.5 6.56,5.38 10.52,6.34 0.45,0.11 2.76,0.78 3.13,0.22 0.07,-0.11 -3.44,-0.24 -3.74,-0.24 -2,0 -3.35,-0.36 -5.14,-1.3 -1.85,-0.96 -3.94,-1.93 -5.39,-3.49 -0.49,-0.53 -0.88,-1.15 -1.32,-1.73 -0.25,-0.33 -0.77,-1.38 -0.74,-0.98 0.18,2.9 6.83,8.13 9.76,7.51 1.82,-0.38 2.58,-0.46 4.18,0.5 0.23,0.14 0.9,0.27 0.68,0.43 -0.24,0.18 -0.56,-0.2 -0.83,-0.31"
         id="path43" />
      <path
         class="cls-2"
         d="m 141.13,355.01 c -1.95,0.84 -8.4,-1.61 -3.05,-0.88"
         id="path44" />
      <path
         class="cls-2"
         d="m 77.61,257.35 c 0.94,-0.88 -1.35,-2.83 -1.94,-3.45 -1.89,-2.03 -7.28,-4.71 -9.96,-3.22 -2.04,1.13 -4.59,3.03 -4.69,5.65 -0.24,6.92 7.21,18.35 14.64,18.61 8.08,0.28 7.4,-11.1 3.94,-15.75 -0.7,-0.94 -1.97,-4.8 -3.82,-4.25"
         id="path45" />
      <path
         class="cls-2"
         d="m 74.62,256.43 c 4.23,2.3 -3.36,-3.06 -4.59,-3.4 -0.66,-0.18 -1.25,-0.04 -1.91,-0.07 -0.36,-0.01 -1.31,-0.54 -1.02,-0.33 2.6,1.87 5.55,3.07 8.06,5.14 0.15,0.12 2.84,3.04 2.84,3.04 -2.82,-0.81 -5.58,-4.55 -8.25,-5.95 -1.09,-0.57 -2.26,-0.94 -3.41,-1.37 -0.49,-0.19 -1.67,-1.12 -1.45,-0.64 0.57,1.26 3.76,2.56 4.74,3.26 2.85,2.03 5.61,4.22 8.23,6.54 0.21,0.18 2.93,2.13 2.78,2.53 -0.1,0.26 -0.56,-0.1 -0.8,-0.25 -1.29,-0.77 -2.51,-1.75 -3.66,-2.7 -2.93,-2.42 -5.83,-4.64 -9.11,-6.57 -0.62,-0.37 -4.02,-1.27 -4,-1.24 2.71,3.75 9.41,7.85 13.15,10.91 1.35,1.1 2.98,2.06 4.07,3.45 0.18,0.22 0.67,0.63 0.41,0.75 -0.55,0.25 -3.16,-2.4 -3.44,-2.62 -3.54,-2.91 -7.01,-5.71 -10.82,-8.25 -1.34,-0.9 -2.71,-1.72 -4.03,-2.64 -0.43,-0.3 -1.48,-1.42 -1.29,-0.93 1.26,3.25 8.98,9.39 11.8,11.74 1.53,1.28 3.33,3.38 5.23,4.08 0.03,0 1.14,0.35 1.1,0.11 -0.12,-0.72 -2.64,-1.03 -3.12,-1.21 -3.02,-1.13 -5.56,-3.13 -7.9,-5.28 -1.38,-1.27 -2.79,-2.66 -3.9,-4.18 -0.81,-1.1 -2.04,-3.2 -2.33,-2.66 -0.53,0.98 2.15,3.6 2.58,4.14 2.41,3.07 4.96,6.55 8.38,8.53 0.94,0.54 2.06,1.59 3.18,1.73 0.25,0.03 2.01,-0.89 2.08,-0.66 0.28,0.93 -4.53,1.68 -5.05,1.44 -3.04,-1.36 -7.47,-6.63 -8.85,-9.65"
         id="path46" />
      <path
         class="cls-3"
         d="m 89.88,347.07 c 1.33,1.37 3.19,1.99 4.85,2.82 3.66,1.81 7.43,4.52 10.92,6.72 4.56,2.87 8.66,7.39 13.57,9.62 2.03,0.92 4.32,2.16 6.42,2.89 2.03,0.71 4.36,0.49 6.44,1.21"
         id="path47" />
      <path
         class="cls-3"
         d="m 91.98,348.26 c 1.59,2.93 5.99,5.6 8.4,7.85 8.93,8.35 21.79,15.41 34.19,14.99"
         id="path48" />
      <path
         class="cls-3"
         d="m 304.93,278.54 c 3.44,2.06 -4.57,1.89 -5.41,0.79 -0.57,-0.75 1.84,0.4 2.77,0.56 0.43,0.08 6.91,0.75 6.86,1.12 -0.12,0.87 -1.78,-0.07 -2.61,-0.35 -1.78,-0.61 -5.35,-5.96 -6.45,-2.77 -0.47,1.36 6.11,4.7 6.83,4.14 0.72,-0.56 -1.64,-0.82 -2.5,-1.1 -2.11,-0.66 -4.26,-1.19 -6.39,-1.81 -1.14,-0.33 -4.58,-1.19 -3.51,-0.66"
         id="path49" />
    </g>
    <g
       id="Storm">
      <path
         class="cls-19"
         d="m 178.54,485.86 c -3.95,3.41 -6.87,7.51 -10.65,11.08 -5.98,5.64 -12.52,10.86 -18.11,16.8 -5.59,5.94 -10.53,12.67 -16.44,18.37 -12.76,12.33 -24.99,24.46 -34.1,39.79"
         id="path50" />
      <path
         class="cls-19"
         d="m 209.51,499.64 c -4.29,7.22 -6.26,19.8 -8.53,28.01 -1.46,5.28 -4.14,10.21 -5.71,15.46 -4.22,14.08 -6.19,28.53 -12.45,41.92 -3.43,7.34 -4.47,15.82 -8.59,22.75"
         id="path51" />
      <path
         class="cls-19"
         d="m 100.03,575.07 c 8.47,6.63 17.6,12.21 26.75,17.87 7.98,4.93 15.74,9.93 24.6,13.09 3.97,1.42 16.49,5.32 20.28,3.52"
         id="path52" />
      <path
         class="cls-19"
         d="m 202.65,354.51 c -9.83,-0.72 -24.66,12.22 -31.03,18.64 -14.26,14.38 -22.26,34.83 -19.03,55.08 1.34,8.41 4.82,16.17 7.5,24.09 2.48,7.35 11.24,22.58 18.12,26.67"
         id="path53" />
      <path
         class="cls-19"
         d="m 243.14,357.7 c 1.87,-1.2 11.81,3.57 13.85,4.49 10.93,4.96 24.75,10.38 31.51,20.92"
         id="path54" />
      <path
         class="cls-19"
         d="m 315.65,415.26 c 5.92,7.31 4.54,17.45 4.13,26.49 -0.34,7.5 -0.38,14.38 -2.48,21.56 -4.69,16.05 -16.66,26.97 -29.83,36.07 -2.49,1.72 -4.46,4.12 -7.16,5.6 -4.37,2.4 -15.76,3.8 -20.83,4.39 -9.84,1.13 -21.78,-0.62 -31.59,-2.42 -4.36,-0.8 -10.86,-6.64 -14.35,-6.51"
         id="path55" />
      <path
         class="cls-19"
         d="m 294.57,383.67 c 2.21,-5.62 9.71,-11.26 13.36,-16.38 4.51,-6.31 9.24,-13.91 15.25,-18.85 5.19,-4.27 11.37,-8.26 16.16,-12.97 8.63,-8.49 16.64,-15.95 26.85,-22.57 7.82,-5.07 15.96,-11.52 25.73,-9.2 1.83,0.43 4.75,1.04 5.66,3.15 0.98,2.25 -0.08,6.36 -0.59,8.51 -2.42,10.17 -4.86,16.99 -11.8,25.28 -6.54,7.81 -11.86,16.28 -18.65,23.96 -7.17,8.11 -15.99,14.88 -22.95,23.19 -7.75,9.26 -16.14,19.24 -27.48,24.17"
         id="path56" />
      <path
         class="cls-19"
         d="m 203.33,334.86 c 0.08,-0.22 0.59,-1.42 0.24,-1.54 -0.29,-0.1 -0.26,0.56 -0.32,0.86 -0.37,1.99 0.65,4.47 0.88,6.52 0.47,4.13 0.12,8.37 0.61,12.61"
         id="path57" />
      <path
         class="cls-19"
         d="m 255.59,279.3 c -0.99,2.7 0.06,5.63 -0.15,8.42 -0.34,4.74 -1.72,9.17 -2.43,13.78 -0.44,2.84 0.36,5.82 -0.25,8.71 -3.12,14.76 -7.44,28.4 -12.66,42.65"
         id="path58" />
      <path
         class="cls-19"
         d="m 252.22,278.71 c -1.72,1.63 -2.5,4.18 -3.86,6.09 -2.96,4.18 -7.67,8 -11.37,11.49 -3.5,3.31 -5.69,7.63 -8.94,11.08 -6.79,7.22 -14.6,13.37 -20.76,21.11"
         id="path59" />
      <path
         class="cls-19"
         d="m 212.89,329.23 c -1.97,-4.25 -4.13,16.21 -4.27,17.03 -0.19,1.18 -0.41,4.01 0.67,3.51 1.36,-0.63 3.36,-6.65 3.7,-7.45 3.17,-7.35 5.63,-14.86 8.2,-22.44 0.06,-0.18 1.93,-7.19 4.17,-6.95 1.8,0.19 0.06,3.65 -0.35,5.42 -0.57,2.49 -1.36,4.94 -2.05,7.4 -2.08,7.39 -4.5,14.65 -6.73,21.99 -1.01,3.31 -1.27,3.66 -1.45,6.64 -0.01,0.23 -0.06,0.86 0.08,0.68 1.7,-2.14 3.25,-10.33 3.84,-12.29 0.89,-2.94 1.69,-5.9 2.58,-8.84 2.95,-9.72 5.79,-19.13 10.59,-28.08 0.68,-1.26 6.06,-11.15 7.47,-10.64 0.44,0.16 -1,5.48 -1.79,8.47 -0.68,2.57 -1.42,5.13 -2.16,7.69 -3.68,12.79 -7.63,25.58 -10.22,38.65 -0.07,0.35 -2.27,7.96 -1.9,8.76 0.13,0.28 0.19,-0.58 0.32,-0.86 0.57,-1.31 1.23,-2.59 1.76,-3.92 0.87,-2.18 1.57,-4.43 2.42,-6.62 1.14,-2.95 2.42,-5.85 3.55,-8.81 1.42,-3.72 2.73,-7.48 4.1,-11.22 1.44,-3.93 2.82,-7.88 4.31,-11.79 3.17,-8.32 7.53,-16.15 10.59,-24.5 0.1,-0.29 -0.21,0.58 -0.32,0.86 -0.42,1.15 -0.92,2.28 -1.26,3.45 -0.55,1.87 -0.93,3.79 -1.42,5.68 -1.91,7.3 -3.48,14.57 -5.09,21.94 -2.83,13.01 -6.99,25.36 -11.55,37.84 -1.64,4.5 -3.01,9.2 -5.52,13.31"
         id="path60" />
      <path
         class="cls-19"
         d="m 301.15,390.18 c -2.24,-0.82 2.17,-6.26 2.42,-6.62 3.6,-5.05 7.71,-9.54 12.22,-13.8 10.13,-9.56 19.77,-19.61 29.9,-29.18 5.69,-5.38 12.56,-9.16 18.52,-14.1 2.16,-1.79 3.84,-4.21 6.08,-5.93 3.49,-2.67 7.64,-3.45 10.84,-6.47 0.41,-0.38 6.47,-4.57 6.52,-4.46 0.74,1.6 -1.62,3.14 -2.65,4.57 -3.54,4.93 -8,9.25 -12.4,13.4 -4.43,4.18 -8.7,8.69 -13.16,12.8 -4.19,3.87 -9.32,6.82 -13.86,10.26 -9.41,7.14 -18.19,15.26 -26.07,24.05 -4.75,5.3 -10.17,10.21 -15.54,14.86 -0.27,0.23 -5.05,6.04 -4.82,6.06 1.63,0.17 6.4,-4.37 7.41,-5.12 5.04,-3.69 9.87,-7.6 14.67,-11.59 7.88,-6.55 15.22,-13.06 22.67,-20.08 3.93,-3.71 8.69,-6.31 12.5,-10.11 5.58,-5.56 10.38,-11.21 16.64,-16.09 3.43,-2.67 6.97,-6.35 9.49,-9.9 0.74,-1.04 1.92,-3.52 3.12,-4.08 1.58,-0.74 -1.41,3.21 -2.36,4.68 -1.7,2.62 -3.24,5.34 -4.88,8 -4.31,6.97 -9.99,11.43 -15.7,17.09 -6.4,6.34 -10.05,14.53 -15.92,21.25 -7.12,8.16 -15.08,16.34 -22.78,23.96 -3.66,3.63 -8.47,5.88 -12,9.63 -0.66,0.71 -0.9,2.61 -1.81,2.27 -1.07,-0.39 1.96,-3.62 3.54,-5.23 3.92,-3.98 8.55,-7.18 12.53,-11.07 5.68,-5.57 4.37,-5.66 9.73,-11.44 4.55,-4.92 10.06,-8.92 14.54,-13.92 6.47,-7.21 12.46,-13.75 19.76,-20.17 2.28,-2.01 4.3,-4.22 6.29,-6.5 0.57,-0.66 1.34,-2.78 1.7,-1.99 0.57,1.24 -1.47,2.3 -2.23,3.42 -3.57,5.27 -7.37,9.59 -11.75,14.29 -6.13,6.59 -10.22,14.65 -16.49,21.04 -3.78,3.84 -8.33,6.35 -12.39,9.82 -6.15,5.24 -11.1,11.78 -19.38,13.78"
         id="path61" />
      <path
         class="cls-19"
         d="m 328.6,385.54 c -8.54,5.19 -16.42,11.18 -24.7,16.73 -4.32,2.89 -9.78,4.47 -11.71,9.74"
         id="path62" />
      <path
         class="cls-19"
         d="m 109.48,570.22 c 0.12,-4.24 6.78,-8.72 9.33,-11.26 2.23,-2.22 4.55,-4.37 6.68,-6.69 6.32,-6.89 12.79,-13.55 19.19,-20.38 4.64,-4.95 8.24,-10.7 13.13,-15.42 5.63,-5.42 11.85,-9.94 17.4,-15.49 5.08,-5.09 10.62,-8.93 16.27,-13.29 1.05,-0.81 1.85,-2.57 3.17,-2.43 1.22,0.13 -0.77,2.4 -1.55,3.35 -0.78,0.95 -1.76,1.73 -2.59,2.64 -4.98,5.4 -10.79,9.81 -15.93,15.04 -3.83,3.89 -6.96,8.43 -10.72,12.38 -3.74,3.94 -8.04,7.34 -11.66,11.39 -5.2,5.8 -8.98,12.72 -14,18.68 -5.04,5.99 -10.09,11.72 -14.47,18.19 -1.14,1.68 -2.1,3.33 -3.15,5.04 -0.59,0.97 -2.12,4.03 -1.73,2.95 0.1,-0.29 0.62,-0.9 0.32,-0.86 -0.68,0.08 -1.51,2.09 -1.49,1.41 0.09,-3.26 6.86,-10.18 8.79,-12.44 1.49,-1.75 2.99,-3.48 4.51,-5.2 1.82,-2.06 3.66,-4.1 5.5,-6.14 14.44,-16.01 30.09,-30.35 46.05,-44.8 5.25,-4.76 9.64,-9.77 15.7,-13.5 2.27,-1.4 5.69,-3.74 6.1,-3.31 0.95,1.01 -1.6,2.28 -2.52,3.32 -3.7,4.19 -7.4,8.39 -11.11,12.57 -7.98,8.96 -17.09,16.85 -25.06,25.73 -4.69,5.23 -7.91,11.58 -12.4,16.99 -6.86,8.26 -14.16,15.83 -20.66,24.4 -1.54,2.03 -2.95,5.39 -3.81,7.74 -0.3,0.83 -0.53,1.82 -0.95,2.59 -0.15,0.28 -0.53,1.07 -0.6,0.76 -0.13,-0.53 6.54,-11.95 7.45,-13.25 1.17,-1.67 2.46,-3.24 3.72,-4.83 1.55,-1.95 3.11,-3.88 4.72,-5.77 1.07,-1.26 2.25,-2.41 3.3,-3.68 0.13,-0.16 0.4,-0.66 0.21,-0.58 -9.63,4.48 -15.27,14.68 -22.9,21.63 -0.86,0.78 -4.68,2.11 -5.03,3.05 -2.14,5.85 5.66,-0.23 6.52,-0.88 7.06,-5.38 11.25,-12.58 17.3,-18.78 10.74,-11.01 22.99,-20.96 32.63,-33.07 5.7,-7.17 9.5,-15.17 16.31,-21.43 1.59,-1.46 3.45,-2.58 5.06,-4.02 1.02,-0.91 2.67,-4.15 2.99,-2.82 0.52,2.13 -2.76,5.83 -3.49,6.88 -3.94,5.64 -8.33,10.82 -12.48,16.31 -4.38,5.8 -7.72,12.33 -12.14,18.06 -3.95,5.12 -9.02,9.25 -13.29,14.05 -3.51,3.95 -6.06,8.72 -9.28,12.91 -3.84,4.98 -8.59,7.85 -12.95,12.22 -0.73,0.73 -3.72,3.44 -2.65,4.57 1.39,1.47 7.19,-2.86 7.96,-3.94 3.38,-4.72 6.26,-9.74 9.81,-14.35 5.45,-7.08 12.43,-12.31 18.09,-19.15 5.89,-7.12 8.96,-15.88 15.19,-22.82 1.4,-1.57 10.22,-11.09 12.13,-10.89 1.1,0.12 -0.52,4.12 -2.05,7.4 -3.13,6.68 -7.33,12.81 -11.2,19.06 -6.93,11.16 -13.57,22.03 -22.42,31.91 -3.58,4 -8.52,5.69 -12.47,9.14 -1.28,1.12 -8.08,9.76 -8.7,9.54 -0.39,-0.14 1.15,-1.48 2.99,-2.82 2.31,-1.69 4.68,-3.29 7.02,-4.93 4.55,-3.19 6.76,-4.56 10.61,-8.51 4.33,-4.45 7.69,-9.72 12.03,-14.19 2.64,-2.72 5.8,-4.91 8.36,-7.71 1.07,-1.16 3.97,-5.61 4.85,-7.03 0.6,-0.97 1.1,-2 1.73,-2.95 0.35,-0.54 1.19,-2.16 1.21,-1.52 0.14,4.62 -4.69,11.78 -6.46,15.9 -4.8,11.16 -9.27,22.83 -18.52,31.05 -2.34,2.08 -10.24,9.3 -13.99,7.93 -1.15,-0.42 4.47,-1.84 5,-2.08 3.59,-1.67 7.39,-2.95 10.89,-4.82 4.1,-2.19 7.11,-5.82 9.96,-9.4 0.19,-0.24 4.13,-6 4.9,-5.38 0.49,0.39 -3.44,9.98 -3.99,10.93 -4.02,6.86 -10.18,20.08 -20.04,16.48"
         id="path63" />
      <path
         class="cls-19"
         d="m 212.16,361.57 c 1.51,-4.14 -6.4,0.82 -6.91,1.06 -7.78,3.61 -14.1,8.26 -21.29,12.76 -0.91,0.57 -9.22,4.42 -8.44,7.02 0.12,0.4 0.88,0.33 1.26,0.13 5.04,-2.61 9.73,-6.57 14.8,-9.26 7.41,-3.93 15.9,-6.75 23.9,-9.2 1.55,-0.48 8.52,-1.84 10.91,-2.21 1.22,-0.19 4.11,-1.44 3.69,-0.28 -0.66,1.81 -8.59,3.84 -9.71,4.27 -5.66,2.17 -11.08,4.37 -16.57,6.99 -3.91,1.86 -7.82,3.75 -11.6,5.87 -2.79,1.57 -5.38,3.49 -8.09,5.19 -2.16,1.36 -5.54,1.78 -6.42,4.18 -0.48,1.3 2.82,0.58 4.16,0.22 1.88,-0.51 3.64,-1.42 5.39,-2.27 2.6,-1.26 5.08,-2.77 7.67,-4.04 10.35,-5.07 21.42,-11.07 32.57,-14.18 3.79,-1.06 7.75,-1.41 11.59,-2.28 0.67,-0.15 2.52,-0.72 2.04,-0.23 -4.33,4.48 -14.87,7.21 -20.14,9.6 -8.16,3.7 -16.09,7.88 -23.99,12.1 -2.8,1.5 -5.64,2.93 -8.46,4.41 -1.09,0.57 -3.39,0.53 -3.25,1.75 0.13,1.16 2.24,-0.65 3.32,-1.07 2.83,-1.09 5.64,-2.25 8.43,-3.44 3.65,-1.56 7.23,-3.29 10.89,-4.82 12.47,-5.2 24.64,-8.51 37.9,-10.93 1.02,-0.19 7.07,-1.33 9.03,-0.61 0.29,0.11 -0.05,0.71 -0.32,0.86 -1.45,0.81 -3.08,1.25 -4.61,1.9 -2.72,1.16 -5.38,2.47 -8.14,3.55 -3.58,1.39 -7.27,2.49 -10.86,3.85 -10.5,3.99 -19.15,7.61 -29.33,12.43 -3.39,1.61 -6.66,3.47 -10.03,5.14 -2.07,1.02 -4.19,1.95 -6.28,2.92 -0.26,0.12 -1.07,0.4 -0.79,0.37 7.9,-0.9 14.87,-6.28 21.78,-9.65 11.8,-5.74 23.83,-9.6 36.42,-13.1 4.99,-1.39 10.03,-2.94 15.21,-3.25 1.06,-0.06 3.44,-0.85 3.19,0.19 -0.36,1.49 -2.48,1.82 -3.85,2.51 -2.64,1.33 -5.42,2.39 -8.14,3.55 -12.83,5.44 -25.65,10.89 -38.18,17.02 -7.51,3.68 -13.79,7.04 -20.77,11.32 -0.63,0.38 -2.47,1.05 -1.78,1.31 0.81,0.3 1.6,-0.68 2.36,-1.1 2.1,-1.15 4.04,-2.59 6.21,-3.6 3.47,-1.61 7.14,-2.79 10.68,-4.25 13.54,-5.59 27,-11.28 41.13,-15.29 6.46,-1.83 13.03,-3.25 19.61,-4.57 1.48,-0.3 2.97,-0.55 4.48,-0.65 0.3,-0.02 1.04,0.07 0.86,0.32 -1.95,2.69 -5.94,2.99 -9.03,4.2 -3.17,1.24 -6.35,2.44 -9.5,3.7 -15.2,6.08 -30.23,12.8 -44.67,20.52 -4.09,2.19 -7.96,4.77 -12.02,7.02 -2.21,1.22 -4.52,2.27 -6.78,3.39 -0.26,0.13 -1.07,0.38 -0.79,0.36 6.81,-0.37 11.59,-4.19 17.54,-6.96 14.13,-6.56 29.29,-12.78 44.01,-17.82 5.51,-1.89 14.14,-4.09 20.39,-4.94 1.54,-0.21 3.1,-0.32 4.66,-0.25 0.51,0.02 1.61,0.05 1.44,0.53 -1.12,3.06 -5.66,3.22 -8.56,4.7 -3.29,1.67 -6.45,3.58 -9.74,5.24 -10.95,5.53 -22.19,10.49 -33.2,15.91 -8.81,4.33 -17.79,8.33 -26.53,12.8 -1.56,0.8 -5.26,4.47 -4.35,2.98 3.25,-5.34 10.44,-6.91 15.98,-9.81 4.35,-2.29 8.56,-4.86 12.99,-6.99 13.89,-6.69 27.97,-10.94 42.86,-14.66 3.92,-0.98 14.33,-5.33 19.11,-4.1 1.56,0.4 -2.55,1.99 -3.96,2.79 -2.39,1.37 -4.65,2.98 -7.1,4.25 -8.39,4.35 -17.24,7.77 -25.82,11.76 -16.08,7.47 -31.95,15.15 -47.66,23.34 -2.75,1.44 -5.59,2.7 -8.35,4.12 -0.58,0.3 -1.06,1.24 -1.68,1.02 -0.56,-0.2 0.91,-0.77 1.39,-1.12 2.32,-1.67 4.55,-3.5 7.02,-4.93 8.19,-4.75 16.64,-9.06 25.27,-12.94 14.17,-6.36 29.51,-11.46 44.35,-16.07 3.08,-0.96 6.22,-1.74 9.37,-2.44 2,-0.45 4.91,-2.35 6.12,-0.7 0.27,0.37 -0.59,0.73 -1,0.94 -1.48,0.75 -3.1,1.2 -4.61,1.9 -2.16,1 -4.26,2.13 -6.39,3.21 -3.35,1.7 -6.68,3.45 -10.03,5.14 -16.34,8.23 -32.29,16.82 -48.03,26.14 -5.75,3.4 -11.49,6.81 -17.16,10.36 -0.99,0.62 -4.12,1.89 -2.96,1.85 4.55,-0.14 8.19,-4 12.1,-6.34 3.49,-2.09 6.93,-4.25 10.45,-6.29 16.51,-9.57 33.86,-16.34 51.9,-22.44 6.38,-2.16 11.77,-3.73 18.35,-4.71 1.31,-0.19 2.65,-0.19 3.98,-0.18 0.52,0 1.72,-0.25 1.54,0.24 -1.05,2.88 -4.97,3.62 -7.7,5.01 -3.15,1.61 -6.49,2.81 -9.71,4.28 -17.26,7.84 -34.75,15.4 -51.74,23.8 -4.41,2.18 -8.61,4.76 -12.99,6.99 -2.7,1.38 -5.53,2.5 -8.25,3.83 -0.46,0.22 -1.71,1.11 -1.28,0.84 18.8,-12.23 41.26,-21.33 62.16,-29.12 3.2,-1.19 6.4,-2.39 9.69,-3.31 3.14,-0.87 6.38,-1.34 9.55,-2.05 2.99,-0.67 6,-1.33 9.06,-1.58 2.74,-0.23 -6.52,3.22 -7.18,3.57 -6.5,3.48 -12.86,7.24 -19.48,10.49 -5.51,2.7 -11.08,5.27 -16.6,7.95 -5.72,2.78 -11.39,5.64 -17.1,8.42 -5,2.43 -10.13,4.61 -15.03,7.22 -4.72,2.52 -9.05,5.99 -14.17,7.54 -0.22,0.07 0.3,-0.35 0.5,-0.47 1.75,-1.03 3.59,-1.89 5.32,-2.95 2.61,-1.6 5.08,-3.43 7.7,-5.01 3.23,-1.94 6.49,-3.82 9.85,-5.53 16.16,-8.25 33.95,-14.76 51.6,-18.96 5.15,-1.23 10.54,-1.6 15.83,-1.39 0.74,0.03 2.6,-0.48 2.22,0.16 -1.81,3.09 -10.27,4.66 -12.07,5.37 -3.83,1.5 -7.54,3.3 -11.29,5.01 -22.19,10.12 -43.84,21.8 -65.83,32.02 -0.95,0.44 1.55,-1.43 2.38,-2.06 1.87,-1.42 3.69,-2.95 5.74,-4.1 3.02,-1.69 6.33,-2.83 9.43,-4.38 17.57,-8.78 34.34,-16.09 53.23,-21.63 5.46,-1.6 11.02,-3.04 16.67,-3.69 1.32,-0.15 4.98,-1.04 3.98,-0.18 -8.47,7.33 -21.27,12.03 -31.19,16.64 -10.74,4.99 -21.51,9.9 -32.39,14.57 -6.83,2.94 -13.6,6.03 -20.5,8.81 -1.02,0.41 -3.6,1.82 -3.22,0.78 0.42,-1.15 2.29,-0.88 3.43,-1.35 4.67,-1.94 9.14,-4.31 13.75,-6.39 15.09,-6.8 30.6,-11.79 46.57,-15.91 7.12,-1.84 14.16,-4.1 21.46,-5.2 0.86,-0.13 2.52,-0.89 2.62,-0.02 0.07,0.61 -2.08,0.1 -8.01,2.29 -2.37,0.87 -4.62,2.05 -6.96,3 -12.59,5.12 -25.21,10.18 -37.83,15.19 -5.25,2.08 -10.49,4.21 -15.87,5.94 -3.7,1.19 -3.72,1 -6.65,2.13 -0.27,0.1 -0.94,0.61 -0.79,0.36 2.26,-3.71 9.32,-5.63 12.7,-7.1 12.72,-5.51 25.81,-9.27 39.22,-12.73 2.48,-0.64 9.35,-1.99 12.2,-3.04 1.15,-0.43 3.25,-1.75 3.25,-1.75 0,0 -1.77,1.03 -2.57,1.67 -1.11,0.88 -2.11,1.91 -3.27,2.72 -4.54,3.16 -8.01,4.5 -13.28,6.89 -7.76,3.52 -15.41,7.41 -23.54,9.98 -7.14,2.26 -14.93,3.93 -22.25,5.56 -1.2,0.27 -3.77,0.63 -3.25,1.75 0.5,1.08 2.39,-0.27 3.51,-0.67 5.15,-1.88 10.27,-4.03 15.47,-5.76 12.64,-4.2 25.83,-6.09 38.37,-10.43 5.82,-2.01 12.48,-7.48 17.89,-8.79 0.5,-0.12 -0.86,0.54 -1.28,0.84 -1.33,0.92 -2.6,1.92 -3.96,2.79 -3.66,2.35 -7.29,4.82 -11.24,6.65 -12.03,5.59 -25.27,8.35 -37.67,12.97 -4.85,1.8 -10.06,4.83 -15.19,5.86 -2.6,0.52 -2.29,0.04 -4.48,0.65 -0.28,0.08 -1.03,0.22 -0.79,0.37 3.54,2.16 11.89,0.17 15.52,-0.52 5.45,-1.05 10.69,-3.03 16.02,-4.58 9.64,-2.81 19.62,-4.75 28.93,-8.67 1.86,-0.78 3.68,-1.67 5.5,-2.55 2.04,-1 6.96,-2.87 6.99,-3.97 0.04,-1.23 -2.35,0.9 -3.25,1.75 -0.66,0.63 -1.28,1.31 -1.99,1.88 -3.77,3 -8.45,5.92 -12.73,8.06 -10.61,5.31 -22.89,8.07 -34.32,10.93 -4.9,1.23 -5.58,0.64 -10.31,1.45 -1.23,0.21 -3.61,0.96 -3.61,0.96 0,0 3.68,-0.74 5.55,-0.91 3.57,-0.32 7.1,-0.31 10.68,-0.66 10.53,-1.03 22,-0.81 31.75,-5.68 3.87,-1.94 9.3,-5.18 11.97,-8.67 0.77,-1.01 1.12,-2.19 1.55,-3.35 0.14,-0.38 0.56,-1.53 0.42,-1.15 -4.47,12.22 -24.1,17.33 -35.25,19.72 -1.48,0.32 -14.78,2.14 -14.4,5.5 0.15,1.36 2.74,-0.18 4.08,-0.46 4.39,-0.93 8.85,-1.76 13.17,-3.01 11.44,-3.32 29.12,-7.51 35.14,-19.43 3.36,-6.65 7.23,-16.8 9.41,-23.95 0.81,-2.68 1.73,-5.94 1.9,-8.76 0.11,-1.78 -0.03,-1.27 -0.31,-2.72 -0.04,-0.22 -0.17,-0.89 -0.08,-0.68 3.54,7.61 -1.66,19.76 -5.12,26.5 -1.52,2.96 -4.4,5.21 -6.89,7.26 -0.88,0.72 -3.43,1.71 -2.49,2.35 3.15,2.14 13.15,-10.86 14.12,-12.77 5.16,-10.16 6.97,-20.5 8.95,-31.62 0.61,-3.44 1.83,-9.59 -0.61,-12.61 -1.02,-1.26 -2.69,-1.64 -4,-2.44 -0.33,-0.2 1.11,1.16 1.33,4.4 0.2,2.9 0.19,5.84 -0.25,8.71 -1.21,7.82 -3.52,16.45 -7.55,23.33 -0.46,0.79 -1.26,2.88 -2.7,2.93 -0.87,0.03 -0.28,-1.78 -0.02,-2.62 0.91,-2.93 1.98,-5.8 2.87,-8.73 0.56,-1.86 1.17,-3.7 1.71,-5.57 3.33,-11.56 4.16,-21.15 2.59,-32.96 -0.13,-1.01 -1.38,-8.27 -3.15,-8.33 -1.42,-0.04 -0.04,2.85 0.07,4.27 0.11,1.46 0.31,2.91 0.36,4.37 0.27,7.53 -1.28,14.39 -3.62,21.5 -0.6,1.84 -0.07,5.67 -2,5.47 -2.06,-0.22 -0.32,-4.16 -0.02,-6.2 0.31,-2.06 0.63,-4.12 0.95,-6.17 1.03,-6.69 5.81,-18.56 1.69,-25.14 -1.68,-2.68 -3.78,0.84 -4.32,2.01 -2.33,5.08 -2.83,11.06 -2.8,16.58 0.02,3.36 2.11,9.31 -0.83,12.09"
         id="path64" />
      <path
         class="cls-19"
         d="m 241.32,364.73 c 4.55,2.44 9.42,3.08 14.3,4.58 12.17,3.74 25,9.91 34.25,18.71 1.27,1.21 11.95,10.49 9.9,13.07 -0.69,0.86 -4.29,-1.77 -4.79,-2.07 -5.23,-3.19 -10.89,-6.05 -16.31,-8.9 -11.94,-6.28 -24.42,-11.93 -38,-12.91"
         id="path65" />
      <path
         class="cls-19"
         d="m 219.9,490.26 c -0.27,0.74 -0.46,3.39 -1.08,3.84 -1.36,1 -2.42,-2.36 -3.58,-3.59 -2.71,-2.87 -2.6,-2.67 -6.06,-4.82 -3.93,-2.44 -8.45,-4.98 -11.08,-8.94 -1.36,-2.05 -2.04,-4.51 -3.5,-6.49 -3.03,-4.14 -6.08,-7.42 -8.27,-12.15 -1.58,-3.41 -2.77,-6.99 -4.35,-10.39 -0.41,-0.87 -1.58,-3.22 -1.78,-2.28 -1.08,5.12 8.47,24.56 11.25,29.87 0.64,1.22 4.79,5.65 2.21,7.33 -1.6,1.04 -4.43,-3.46 -4.55,-3.62 -3.04,-4.06 -5.58,-8.4 -8.46,-12.55 -0.89,-1.28 -2.01,-2.39 -2.9,-3.67 -0.33,-0.47 -0.97,-2.09 -0.73,-1.57 2.29,4.93 5.55,9.55 8.11,14.38 0.55,1.03 1.28,1.95 1.85,2.96 0.29,0.5 1.27,1.77 0.73,1.57 -0.57,-0.21 -6.11,-9.46 -6.68,-10.27 -1.28,-1.8 -2.78,-3.45 -3.92,-5.34 -7.89,-13.22 -13.05,-36.26 -11.9,-51.3 0.26,-3.34 0.12,-14.38 4.34,-16.35 0.83,-0.39 -0.56,1.75 -0.95,2.59 -0.84,1.82 -0.94,1.51 -2.12,3.14 -2.32,3.19 -2.99,6.25 -3.1,10.28 -0.23,8.05 1.61,15.66 2.81,23.53 0.26,1.69 1.42,4.72 -0.24,5.13 -1.75,0.42 -6.55,-14.24 -6.7,-16.47 -0.79,-12.09 4.49,-30.56 9.15,-41.98 0.64,-1.56 2.59,-7.74 4.88,-8 1.5,-0.17 0.74,2.97 0.65,4.48 -0.12,2 -0.41,3.99 -0.56,5.99 -0.43,5.96 -0.37,11.96 -0.03,17.92 0.84,14.57 0.58,28.77 6.34,42.42 0.74,1.76 3.01,6.97 5.3,7.81 0.21,0.08 0.01,-0.47 -0.08,-0.68 -0.61,-1.47 -1.39,-2.86 -2.01,-4.32 -2,-4.75 -3.44,-9.71 -5.1,-14.58 -3.19,-9.33 -7.2,-19.02 -6.62,-29.16 0.16,-2.85 0.43,-6.7 2.94,-8.05 1.94,-1.05 3.25,3.24 3.92,5.34 0.85,2.67 1.31,5.45 1.9,8.19 2.78,12.93 5.05,25.89 9.07,38.53 0.7,2.21 1.59,4.35 2.53,6.47 0.86,1.94 1.5,5.3 3.63,5.24 0.42,-0.01 0.26,-0.86 0.13,-1.26 -0.45,-1.37 -1.24,-2.61 -1.82,-3.93 -0.9,-2.05 -1.69,-4.15 -2.63,-6.18 -4.4,-9.46 -8.07,-17.81 -9.56,-28.27 -0.28,-1.95 -1.55,-4.56 -0.12,-5.91 0.21,-0.2 0.24,0.52 0.37,0.79 0.79,1.7 1.68,3.36 2.37,5.11 1.12,2.83 2.03,5.74 3.05,8.61 2.52,7.11 4.7,14.34 7.53,21.34 0.73,1.81 1.49,3.65 2.66,5.21 0.37,0.49 1.46,1.18 1.73,0.63 1.93,-4.08 -6.37,-20.76 -8.8,-24.09 -1.11,-1.51 -2.49,-2.8 -3.66,-4.27 -0.18,-0.23 -0.56,-1 -0.36,-0.79 8.33,8.82 13.36,20.01 18.4,30.85"
         id="path66" />
      <path
         class="cls-20"
         d="m 256.16,284.22 c 1.7,-0.07 0.91,-3.83 0.34,-5.31 -1.53,-3.95 -4.76,-6.72 -7.58,-9.78 -7.58,-8.23 -20.85,-11.14 -31.58,-8.42 -7.44,1.89 -14.19,5.77 -19.89,11.02 -1.97,1.81 -2.67,4.47 -4.27,6.53 -5.25,6.75 -9.46,14 -14.08,21.2 -1.27,1.97 -1.63,4.37 -2.84,6.35 -2.54,4.13 -7.72,18.44 -5.11,23.17 0.75,1.36 3.25,1.58 4.59,1.79 1.96,0.3 3.74,1.1 5.77,1.1 3.29,0 6.85,-1.76 10.04,-2.52 4.64,-1.11 9.19,-3.03 13.56,-4.96 2.19,-0.97 3.79,-2.82 5.88,-3.82 3.9,-1.86 8.41,-3.27 12.01,-5.68 7.1,-4.73 13.73,-10.04 20.47,-15.09 4.11,-3.08 8.32,-5.92 11.48,-9.97 0.89,-1.14 1.2,-2.24 1.37,-3.62 0.08,-0.67 -1.24,-1.71 -0.6,-1.92 0.46,-0.15 -0.17,-0.03 0.45,-0.06 z"
         id="path67" />
      <path
         class="cls-20"
         d="m 229.83,266.74 c -0.47,-1.39 -4.78,0.32 -5.57,0.51 -3.94,0.95 -7.44,2 -10.96,4.04 -11.11,6.43 -22.1,15.89 -28.03,27.36 -0.48,0.93 -2.01,2.5 -2.21,3.51 0,0.03 2.13,-2.52 3.48,-4.16 0.91,-1.1 1.89,-2.14 2.85,-3.2 2.1,-2.33 5.63,-6.27 7.91,-8.32 8.73,-7.83 20.53,-11.43 31.44,-15.13 2.93,-0.99 5.79,-1.69 8.91,-1.32 1.26,0.15 3.82,-0.02 3.82,-0.02 0,0 -4.49,1.63 -6.67,2.58 -4.58,1.99 -9.04,4.21 -13.34,6.75 -10.85,6.44 -20.16,14.98 -30.76,21.81 -4.2,2.7 -6.98,6.42 -10.13,10.24 -0.22,0.26 -3.37,3.37 -2.84,4.15 0.66,0.98 3.31,-1.78 3.49,-1.93 4.29,-3.55 7.78,-7.93 11.88,-11.68 11.18,-10.22 24.02,-18.42 38.24,-23.6 1.08,-0.39 13.29,-4.2 14.15,-2.78 0.14,0.23 0.05,0.62 -0.15,0.8 -2.36,1.95 -6.66,3.08 -9.37,4.66 -4.37,2.56 -8.63,5.39 -12.85,8.18 -6.22,4.13 -11.37,9.54 -17.6,13.62 -4.32,2.83 -9.06,4.94 -13.49,7.55 -3.34,1.97 -6.61,4.44 -9.51,7.05 -1.46,1.31 -2.86,2.71 -4.44,3.84 -0.18,0.13 -0.47,0.48 -0.47,0.48 0,0 0.9,-0.67 1.43,-0.8 2.53,-0.65 4.82,-2.61 6.98,-3.86 3.7,-2.14 7.63,-3.84 11.43,-5.79 12.14,-6.24 22.56,-15.21 34.91,-21.19 4.38,-2.12 8.35,-4.9 12.05,-8.02 1.22,-1.03 2.43,-2.03 3.65,-3.04 0.64,-0.53 2.52,-2.03 1.74,-1.76 -3.86,1.31 -6.67,7.95 -8.7,11.03 -1.86,2.82 -4.36,5.2 -6.81,7.52 -11.37,10.77 -24.34,17.43 -38.07,24.39 -5.94,3.01 -11.1,6.95 -17.79,7.73"
         id="path68" />
      <path
         class="cls-12"
         d="m 259.19,481.41 c -3.03,-4.33 -20.39,-7.92 -20.44,0.72 -0.01,2.6 2.87,4.72 4.6,6.22 2.11,1.83 4.78,3.13 7.39,3.99 1.86,0.61 3.73,1.12 5.7,0.98 12.05,-0.86 5.81,-13.09 -2.39,-14.13"
         id="path69" />
      <path
         class="cls-12"
         d="m 257.53,484.12 c -1.47,-3.54 -7.61,-5.35 -11.08,-5.3 -1.18,0.02 -4.12,0.3 -4.29,1.97 -0.44,4.26 10.71,6.48 13.5,6.88 0.22,0.03 5.18,0.99 5.35,-0.01 0.49,-2.78 -11.32,-7.33 -13.19,-7.64 -0.77,-0.13 -4.63,-0.27 -4.5,1.61 0.28,3.91 11,6.86 14.05,6.84 0.42,0 3.29,-0.1 3.42,-1.17 0.1,-0.82 -3.03,-2.05 -3.29,-2.16 -3.79,-1.65 -7.76,-2.3 -11.83,-2.85 -0.58,-0.08 -1.71,-0.55 -1.75,0.03 -0.05,0.73 3.02,2.47 3.13,2.55 1.6,1.03 10.08,5.48 11.73,3.96 1.19,-1.1 -3.2,-3.44 -3.58,-3.62 -1.88,-0.9 -8.41,-2.99 -10.11,-0.66 -1.05,1.43 1.58,3.46 2.5,4.07 2.45,1.61 5.86,2.64 8.78,2.79 3.42,0.17 5.31,-2.04 0.54,-2.81 -1.18,-0.19 -2.38,-0.22 -3.54,-0.49 -2.26,-0.52 -3.49,-1.2 -5.69,-2.18 -1.9,-0.84 -3.69,-1.92 -5.63,-2.64"
         id="path70" />
      <path
         class="cls-12"
         d="m 182.9,439.12 c -1.76,-4.39 -7.94,-7.58 -12.43,-8.41 -2.5,-0.46 -5.63,1.15 -5.69,3.93 -0.22,8.92 10.06,16.94 18.3,16.18 1.28,-0.12 2.64,0.2 3.78,-0.55 5.03,-3.28 -3.04,-12.54 -6.59,-14.06"
         id="path71" />
      <path
         class="cls-12"
         d="m 186.06,446 c 1.17,-0.99 -1.33,-3.11 -1.81,-3.6 -3.35,-3.42 -7.2,-6.57 -11.55,-8.63 -0.54,-0.26 -4.41,-2.45 -4.87,-1.36 -0.47,1.09 2.08,3.89 2.59,4.53 2.65,3.29 5.94,6.17 9.78,8 0.56,0.26 5.18,2.57 5.59,0.75 0.6,-2.62 -9.95,-9.65 -11.86,-10.67 -0.72,-0.38 -2.84,-1.67 -3.86,-0.8 -0.8,0.68 2.84,4.2 2.9,4.27 2.81,3.02 5.92,6.06 9.37,8.35 0.86,0.57 2.23,2.26 2.76,1.38 0.28,-0.47 -4.78,-4.54 -5.16,-4.84 -3.47,-2.7 -7.53,-5.88 -11.9,-6.74 -0.62,-0.12 -2.52,-1.57 -2.95,-1.4 -0.67,0.27 0.83,1.19 1.29,1.74 1.37,1.62 2.91,3.08 4.41,4.58 1.9,1.9 8.58,7.49 11.59,7 0.05,0 -4.08,-1.66 -4.63,-1.92 -2.23,-1.06 -7.35,-4.21 -7.66,-6.96"
         id="path72" />
      <path
         class="cls-13"
         d="m 119.34,578.14 c 0.22,-3.06 4.89,-9.89 6.59,-12.75 6.67,-11.21 16.9,-26.36 28.07,-33.53"
         id="path73" />
      <path
         class="cls-13"
         d="m 183.89,537.33 c -6.02,20.06 -10.43,40.91 -21.21,59.04"
         id="path74" />
      <path
         class="cls-13"
         d="m 345.42,351.19 c -4.45,1.13 -7.99,5.92 -11.43,8.67 -7.38,5.92 -13.85,11.86 -20.21,18.91 -2.13,2.36 -3.68,6.35 -6.38,8.09"
         id="path75" />
      <path
         class="cls-13"
         d="m 312.44,397.24 c 4.42,-2.11 7.12,-6.21 11,-8.7"
         id="path76" />
      <path
         class="cls-13"
         d="m 220.14,330.49 c 0.37,-0.62 -0.94,3.26 -1.1,4.5 -0.49,3.67 -1,8.21 -0.08,11.83"
         id="path77" />
      <path
         class="cls-13"
         d="m 239.15,318.49 c -0.43,1.97 0.21,4.28 -0.21,6.38 -1.27,6.37 -2.37,14.91 -5.73,20.57"
         id="path78" />
      <path
         class="cls-11"
         d="m 278.04,460.19 c -8.13,-6.49 -15.31,3.4 -6.59,8.75 8.14,4.99 12.96,-8.15 3.69,-10.13"
         id="path79" />
      <path
         class="cls-11"
         d="m 277.12,463.85 c -0.24,-2.13 -6.8,-4.56 -7.96,-2.22 -1.45,2.9 7.31,7.47 8.47,2.76 0.59,-2.41 -6.23,-4.16 -6.32,-1.44 -0.07,2.22 3.89,4.98 5.49,2.65 1.2,-1.74 -3.14,-3.99 -3.94,-2.75 -0.66,1.02 2.93,3.73 3.5,2.8 0.43,-0.7 -0.85,-3 -1.84,-2.54"
         id="path80" />
      <path
         class="cls-11"
         d="m 190.91,409.14 c -1.23,-1.95 -3.95,-4.09 -6.4,-4.06 -2.55,0.03 -5.43,3.14 -4.93,5.69 0.3,1.52 1.28,2.27 2.11,3.46 0.74,1.06 1.81,2.17 2.99,2.73 7.18,3.38 10.63,-7.4 4.05,-8.88"
         id="path81" />
      <path
         class="cls-11"
         d="m 189.33,412.5 c -0.26,-2.54 -5.02,-7.35 -7.66,-4.65 -2.09,2.14 5.59,7.27 7.56,6.02 2.32,-1.47 -3.02,-6.43 -5.53,-3.35 -0.83,1.02 3.89,5.07 5.71,4.37 2.45,-0.94 -3.36,-5.03 -5.35,-3.93"
         id="path82" />
      <path
         class="cls-11"
         d="m 218.44,458.99 c -3.23,4.06 -8.28,12.77 -8.84,18.06 -0.23,2.19 0.72,4.12 1.58,5.98 1.7,3.66 7.2,2.48 9.66,0.88 1.23,-0.8 3.57,-3.31 3.54,-3.29"
         id="path83" />
      <path
         class="cls-11"
         d="m 196.76,463.39 c -3.43,3.24 0.2,12.39 4.87,12.88 4.65,0.49 7.01,-3.33 9.98,-6.13"
         id="path84" />
      <path
         class="cls-11"
         d="m 218.18,458.99 c 1.35,-2.63 -5.88,-13.83 -0.98,-15.02 1.69,-0.41 3.85,2.43 5.05,3.17 0.16,0.1 1.35,1.96 1.62,1.71 0.68,-0.64 -2.56,-2.64 -2.88,-2.99 -0.09,-0.1 -0.33,-0.22 -0.33,-0.22 0,0 0.6,0.24 0.87,0.42 0.83,0.56 1.6,1.35 2.49,1.83 2.03,1.09 7.49,3.48 7.05,6.34 -0.3,1.93 -6.82,3.1 -8.75,3.32 -0.93,0.11 -2,0.12 -2.77,0.62 -0.29,0.19 -1.43,0.93 -1.37,0.82 z"
         id="path85" />
      <path
         class="cls-11"
         d="m 217.85,446.65 c -0.45,-0.97 0.91,2.26 1.01,2.81 0.41,2.42 0.03,4.07 1.68,6.01 0.22,0.26 0.27,0.87 -0.24,0.93 -0.77,0.09 0.28,-5.28 0.29,-5.8 0,-0.78 -0.03,-1.19 -0.34,-1.86 -0.06,-0.12 -0.38,-0.34 -0.33,-0.22 0.78,1.68 1.82,2.77 2.26,4.69 0.32,1.38 0.07,0.39 0.29,1.43 0.04,0.18 0.04,0.72 0.11,0.55 0.45,-1.24 0.42,-4.25 1.71,-4.97 0.2,-0.11 0.52,0.08 0.63,0.23 0.9,1.15 0.4,2.69 -0.44,3.71 -0.21,0.25 -0.71,0.97 -0.74,0.64 -0.08,-0.74 2.49,-2.55 3.27,-2.27 1.32,0.48 -0.5,2.39 -0.57,2.13 -1.03,-3.42 3.61,-1.32 1.3,-1.05"
         id="path86" />
      <path
         class="cls-25"
         d="m 158.01,580.32 c -1.77,-1.05 -3.33,0.04 -4.64,1.21 -1.27,1.14 -2.4,2.44 -3.5,3.74 -0.35,0.41 -0.69,0.84 -1.04,1.26 -0.03,0.02 -0.07,0.02 -0.1,0.04 -0.89,0.57 -1.53,1.36 -2.18,2.17 -0.03,0.04 -0.07,0.09 -0.1,0.13 -0.67,0.57 -1.38,1.1 -1.92,1.77 -0.37,0.46 -0.48,1.09 -0.41,1.66 0.01,0.1 0.06,0.2 0.09,0.29 0,0 0,0.02 -0.01,0.02 0,0 0.01,0.01 0.02,0.01 -0.03,0.03 0.03,0.1 0.05,0.15 0.13,0.27 0.22,0.44 0.42,0.66 0.34,0.36 0.8,0.59 1.3,0.65 1.55,0.2 2.77,-1.28 3.71,-2.44 0.53,-0.46 1.04,-0.95 1.51,-1.46 0.05,-0.02 0.09,-0.06 0.15,-0.08 0.09,0.09 0.08,0.06 0.17,0.15 0.31,0.01 0.6,-0.07 0.87,-0.18 0.31,0 0.82,-0.01 1.23,-0.09 1.76,-0.31 3.43,-1.13 4.64,-2.46 1.85,-2.05 2.47,-5.58 -0.28,-7.21 z"
         id="path87" />
    </g>
    <g
       id="Liv">
      <path
         class="cls-17"
         d="m 452.07,531.37 c -1.01,4.89 1.36,10.1 1.17,14.96 -0.53,13.82 0.14,27.88 2.28,41.51 0.9,5.76 0.15,11.75 1.23,17.49 1.15,6.06 3.2,12.02 4.21,18.1 0.55,3.32 0.45,6.7 1.43,9.97 1.3,4.35 3.48,8.96 4.01,13.41"
         id="path88" />
      <path
         class="cls-17"
         d="m 488.76,514.35 c -0.53,-0.89 2.2,2.83 2.98,3.72 1.99,2.28 3.95,4.56 6.03,6.78 6.66,7.13 9.46,16.88 15.46,24.38 8.51,10.65 14.99,23.04 22.62,34.4 2.61,3.89 3.95,8.59 6.61,12.54 4.5,6.7 8.46,13.14 11.98,20.33 1.5,3.05 3.93,6.12 4.64,9.47"
         id="path89" />
      <path
         class="cls-17"
         d="m 362.47,416.68 c -3.95,7.1 -11.05,13.15 -13.9,21.16 -2.53,7.1 -1.46,14.4 -0.24,21.61 0.51,3.02 -0.27,6.06 0.3,9.08 3.43,18.08 17.14,45.87 35.5,52.89 9.13,3.49 18.67,3.5 28.09,5.27 5.39,1.01 11.26,3 16.74,3.24 7.17,0.31 14.22,-2.31 21.43,-2"
         id="path90" />
      <path
         class="cls-17"
         d="m 362.2,414.79 c -10.46,-12.03 -20.87,-24.61 -29.46,-37.9 -7.28,-11.26 -15.84,-21.22 -20.63,-34.08 -3.39,-9.1 -9.1,-17.07 -11.53,-26.49 -2.52,-9.8 -12.3,-30.82 -0.56,-38.03 7.29,-4.48 24.27,15.98 28.84,19.94 18.68,16.16 32.85,37.15 46.02,57.52 7.25,11.22 16.05,23.07 19.42,36.13"
         id="path91" />
      <path
         class="cls-17"
         d="m 456.92,365.81 c -18.38,-27.22 -12.98,-70.47 -2.96,-99.63 2.55,-7.43 3.73,-15.28 7.01,-22.49 2.99,-6.58 7.32,-12.97 11.11,-19.11 2.43,-3.94 5.99,-7.33 9.46,-10.26 3.65,-3.08 12.98,-11.63 18.66,-8.27 4.04,2.39 5.69,10.56 7.23,14.58 5.89,15.45 8.84,34.81 7.1,51.31 -1.42,13.51 -2.01,27.29 -5.89,40.51 -6.21,21.14 -11.29,42.18 -21.07,62.02"
         id="path92" />
      <path
         class="cls-17"
         d="m 395.24,384.71 c 3.95,-5.32 10.15,-5.95 15.76,-8.41 14.19,-6.22 29.47,-8.4 44.69,-7.63"
         id="path93" />
      <path
         class="cls-17"
         d="m 488.67,375.26 c 2.74,-0.41 5.64,-0.39 8.29,0.7 4.16,1.71 7.26,7.12 10.48,10.1 7.32,6.77 13.66,12.65 17.39,22.31 2.4,6.23 4.86,12.31 7.06,18.41 2.55,7.06 0.28,14.68 0.17,21.79 -0.29,18.68 -9.9,36.49 -22.1,49.69 -5.19,5.61 -11.52,13.42 -19.6,14.64"
         id="path94" />
      <path
         class="cls-4"
         d="m 404.38,426.47 c -4.23,-1.97 -8.78,-10.55 -11.83,-14.38 -1.32,-1.66 -3.04,-2.58 -4.47,-3.93 -3,-2.83 -5.07,-8.06 -7.68,-11.35 -4.45,-5.59 -10.62,-12.15 -16.53,-16.2 -2.7,-1.85 3.87,11.28 4.56,12.49 2.74,4.76 6,11.22 10.04,15.03 0.74,0.7 -1.65,-1.21 -2.6,-1.58 -2.57,-0.99 -4.2,-1.99 -6.41,-3.72 -6.16,-4.8 -10.49,-10.75 -14.02,-17.62 -0.39,-0.76 -2.12,-3.75 -2.69,-4.58 -0.28,-0.41 -0.82,-1.66 -0.93,-1.18 -1.71,7.07 12.65,16.62 14.6,21.96 0.17,0.47 -0.61,-0.8 -0.93,-1.17 -0.56,-0.65 -1.13,-1.28 -1.71,-1.9 -0.82,-0.89 -1.67,-1.74 -2.48,-2.63 -3.34,-3.73 -2.36,-2.61 -5.16,-7.21 -4.17,-6.84 -9.17,-12.72 -13.62,-19.29 -2.32,-3.42 -5.51,-6.01 -7.92,-9.24 -2.89,-3.87 -4.43,-8.55 -6.67,-12.73 -7.06,-13.16 -14.29,-25.27 -19.45,-39.4 -1.78,-4.87 -2.25,-12.56 -5.14,-16.83 -0.2,-0.3 -1.88,-1.41 -1.26,-2.07 0.52,-0.56 4.85,3.98 5.08,4.21 4.19,4.33 9.21,8.68 12.56,13.61 4.21,6.21 7.6,13.07 10.78,19.82 2.83,6.01 7.82,11.94 11.47,17.55 7.55,11.6 15.13,22.39 23.78,33.26 3.73,4.68 5.35,10.49 7.37,16.01 0.6,1.64 1.41,3.2 2.24,4.74 0.33,0.62 1.18,2.06 1.54,1.46 2.9,-4.78 -4.69,-19.01 -6.36,-22.95 -7.73,-18.2 -22.35,-30.42 -32,-47.45 -3.34,-5.89 -7.66,-11.3 -10.86,-17.26 -1.06,-1.97 -1.62,-4.13 -2.73,-6.08 -0.39,-0.69 -1.58,-2.42 -0.81,-2.23 6.25,1.51 11.02,12.5 14.31,17.01 11.89,16.35 23.78,31.84 33.71,49.35 3.97,7.01 9.19,13.31 13.05,20.5 1.34,2.5 2.71,5.23 4.27,7.54 0.17,0.25 1.74,3.45 1.75,3.4 0.31,-2.7 -4.9,-8.71 -6.47,-10.78 -1,-1.32 -1.83,-2.77 -2.97,-3.97 -0.39,-0.42 -1.42,-1.58 -1.38,-1.01 0.44,6.07 7.62,14.13 10.45,18.93 6.8,11.5 12.2,22.31 16.77,34.82"
         id="path95" />
      <path
         class="cls-4"
         d="m 461.28,359.8 c -4.93,-13.48 -4.27,-26.72 -2.68,-40.75 0.79,-6.96 -0.25,-13.9 1.07,-20.75 1.5,-7.8 5.65,-14.47 8.3,-21.86 2.54,-7.09 3.23,-14.17 6.5,-21.2 0.15,-0.33 1.86,-4.73 2.44,-4.46 1.33,0.62 -0.93,2.8 -1.54,4.13 -1.98,4.26 -4.32,8.87 -5.82,13.32 -2.13,6.33 -5.55,12.1 -7.48,18.51 -0.06,0.21 -0.65,4.66 -1.38,4.58 -2.92,-0.33 3.28,-18.59 3.81,-20.22 1.87,-5.74 2.44,-11.7 4.34,-17.36 1.63,-4.85 5.42,-9.26 7.61,-13.98 2.05,-4.42 3.97,-9.81 7.33,-13.36 1.29,-1.36 9.95,-9.54 10.93,-9.08 1.66,0.77 1.47,6.14 1.73,7.51 1.9,10.15 -1.2,17.63 -4.37,27.04 -7.55,22.46 -16.14,44.14 -22.27,67.17 -1.47,5.52 -1.05,11.38 -1.93,16.99 -0.56,3.55 -5.25,25.4 -2.08,27.73 2.37,1.74 5.08,-6.13 5.54,-7.11 3.28,-7.05 3.9,-13.64 6.05,-21.04 3.79,-13.07 5.93,-25.62 8.72,-38.81 1.12,-5.29 4.01,-9.88 5.16,-15.12 1.72,-7.81 1.31,-15.44 4.33,-22.96 2.57,-6.39 3.15,-12.42 4.75,-19.04 0.07,-0.3 1,-4.11 1.55,-4.13 2.09,-0.06 2.16,10.52 2.14,11.43 -0.16,9.45 -3.14,18.19 -4.2,27.49 -3.18,27.94 -7.33,56.67 -19.27,82.35 -1.82,3.93 -1.32,9.26 -3.25,13.4 -2.34,5.04 -5.96,9.61 -8.35,14.75"
         id="path96" />
      <path
         class="cls-4"
         d="m 457.78,522.9 c 2.53,6.92 1.26,16.06 2.94,23.35 6.37,27.71 3.87,57.95 13.77,85.04 0.43,1.17 0.95,4.13 1.8,4.94 0.88,0.83 16.4,-3.75 18.33,-4.15 0.72,-0.15 9.4,-0.98 9.35,-0.87 -0.84,1.81 -9.18,2.61 -11.22,4.1 -1.33,0.97 -1.67,1.02 -2.81,2.05 -0.27,0.24 -1.09,0.74 -0.73,0.78 2.88,0.33 6.52,-3.24 9.43,-3.45 1.64,-0.12 3.38,1.26 5.02,1.22 12.73,-0.36 28.74,-5.84 37.67,-15.29"
         id="path97" />
      <path
         class="cls-4"
         d="m 547.98,620.72 c -1.6,1.69 -8.86,-4.46 -9.12,-6.85 -0.26,-2.43 2.62,0.6 1.47,-1.55 -5.01,-9.33 -14.38,-16.2 -19.93,-25.29 -4.54,-7.44 -6.67,-16.05 -11.55,-23.26 -4,-5.91 -6.98,-11.9 -10.2,-18.16 -1.04,-2.02 -2.54,-3.85 -3.64,-5.79 -0.39,-0.69 -1.54,-2.58 -0.82,-2.24 3.07,1.43 4.83,7.68 6.79,10.24 7.54,9.85 12.36,20.74 18.59,31.37 2.45,4.18 3.99,8.73 6.27,12.98 0.64,1.18 1.92,2.55 2.82,3.55 0.24,0.27 0.9,1.07 0.78,0.73 -1.9,-5.2 -7.92,-9.75 -10.84,-14.36 -10.77,-16.96 -20.04,-34.86 -30.67,-51.89 -4.3,-6.89 -8.7,-13.1 -12.08,-20.52 -1.25,-2.75 -2.94,-5.43 -4.46,-8.04 -0.41,-0.7 -1.36,-2.89 -1.27,-2.08 0.85,8 7.49,21.28 10.05,28.89 6.36,18.9 15.38,35.99 24.67,53.58 4.42,8.38 10.92,15.46 14.9,24.07 1.64,3.55 4.26,6.09 6.02,9.5 0.29,0.57 0.66,1.8 0.66,1.8 0,0 -0.28,-1.28 -0.66,-1.8 -1.64,-2.25 -4.91,-3.3 -6.95,-5.09 -5.18,-4.55 -10.13,-10.71 -14.07,-16.23 -11.21,-15.7 -18.76,-34.76 -25.85,-52.64 -2.62,-6.61 -5.24,-13.44 -6.93,-20.37 -0.46,-1.88 -0.61,-3.83 -1.07,-5.72 -0.26,-1.08 -1.53,-4.19 -1.15,-3.14 3.93,10.75 4.96,22.79 7.32,33.96 2.98,14.08 7.86,27.83 10.73,41.88 1.62,7.93 2.04,16.16 3.71,24.09 0.62,2.93 1.57,5.5 2.95,8.08 0.45,0.84 0.66,1.8 0.98,2.69 0.16,0.45 0.84,1.67 0.49,1.35 -4.98,-4.7 -4.61,-19.8 -4.37,-25.88 0.03,-0.8 0.01,-1.87 0.69,-2.29 1.95,-1.19 2.62,3.75 3.64,5.79 3.46,6.89 7.68,13.23 12.2,19.46 0.8,1.1 1.38,3.57 2.66,3.1 0.33,-0.12 0.17,-0.71 0.12,-1.06 -0.67,-4.36 -2.37,-8.33 -2.63,-12.78 -0.02,-0.36 -0.2,-1.21 0.12,-1.06 5.03,2.34 3.46,10.59 10.71,9.82"
         id="path98" />
      <path
         class="cls-4"
         d="m 372.68,418.13 c -6.35,-0.72 -8.97,12.88 -11,17.25 -8.56,18.41 -0.14,39.74 9.77,55.97 2.1,3.43 4.14,8.32 7.12,11.14 4.51,4.26 21.89,11.17 28.44,10.98 3.06,-0.09 6.19,-1 9.19,-1.32 5.59,-0.59 10.88,2.86 16.26,2.71 5.96,-0.17 11.49,-0.63 17.19,-1.7 0.84,-0.16 2.28,-0.73 2.57,0.08 1.16,3.18 -5.37,4.34 -7.14,4.14 -3.54,-0.4 -6.71,-2.78 -10.21,-2.88 -4.28,-0.13 -8.26,1.33 -12.54,0.51 -2.49,-0.48 -6.17,1.22 -7.15,-1.46"
         id="path99" />
      <path
         class="cls-4"
         d="m 418.24,514.96 c 3.01,8.22 26.36,3.05 30.91,-3.15"
         id="path100" />
      <path
         class="cls-4"
         d="m 371.23,430.87 c -1.63,-10.54 -0.96,10.22 -0.72,11.97 0.45,3.19 1.14,6.35 1.93,9.47 1.65,6.5 3.85,15.4 7.71,21.1 2.49,3.67 6.62,6.06 9.2,9.87 2.47,3.65 4.65,7.49 7.12,11.14 0.82,1.22 1.7,2.41 2.37,3.71 0.29,0.57 0.97,2.35 0.66,1.8 -3.84,-6.78 -6.01,-15.05 -8.65,-22.28 -5.65,-15.45 -10.18,-29.62 -9.79,-46.29 0.12,-5.23 1.3,-14.11 2.46,-19.73 0.28,-1.34 0.59,-2.69 1.1,-3.96 0.21,-0.53 0.56,-1.73 1.02,-1.39 4.04,2.96 5.15,17.15 6.04,20.69 3.97,15.92 7.92,32.04 14.65,47.06 3.22,7.18 6.34,14.89 10.45,21.63 0.6,0.99 1.27,1.95 2.05,2.81 0.38,0.43 1.33,1.59 1.39,1.02 0.56,-4.95 -1.94,-9.78 -3.29,-14.57 -3.29,-11.72 -6.75,-23.44 -8.88,-35.43 -1.17,-6.59 -2.15,-13.22 -2.69,-19.88 -0.33,-4.07 0.13,-8.17 0.1,-12.25 -0.01,-2.52 -0.18,-5.04 -0.22,-7.55 -0.05,-3.49 -0.26,-9.05 2.08,-1.27 1.15,3.83 2.21,7.68 3.2,11.55 4.68,18.27 6.44,37.11 12.01,55.15 0.99,3.2 2.18,6.38 3.89,9.26 0.05,0.08 6,6.97 7.89,6.28 1.89,-0.69 -0.91,-4.07 -1.68,-6 -1.3,-3.26 -2.85,-6.42 -4.06,-9.71 -6.49,-17.75 -11.77,-35.76 -13.36,-54.66 -0.13,-1.56 -1.22,-4.37 0.32,-4.7 1.63,-0.34 2.33,2.47 2.99,4 1.64,3.81 2.69,7.85 3.82,11.84 1.79,6.32 3.4,12.68 4.93,19.06 2.02,8.44 3.54,16.99 5.72,25.39 1.56,6.02 3.36,11.99 5.5,17.84 1.96,5.37 2.03,5.8 6.26,7.38 2.7,1.01 -1.06,-5.7 -2.06,-8.41 -1.53,-4.19 -2.99,-8.41 -4.59,-12.57 -3.88,-10.12 -7.89,-20.19 -11.6,-30.36 -0.78,-2.14 -2.08,-7.45 -3.64,-5.79 -1.8,1.91 -0.58,6.17 -0.23,7.72 0.91,4.05 2.19,8.01 3.37,12 3.39,11.49 7.23,24.33 11.9,35.34 2.52,5.93 11.47,15.14 11.11,2.56"
         id="path101" />
      <path
         class="cls-4"
         d="m 444.34,491.68 c -4.02,-2.95 -6.83,-14.09 -7.74,-17.02 -5.23,-16.66 -7.7,-32.55 -8.08,-49.97 -0.08,-3.58 -1.36,-7.49 0.15,-10.74 0.9,-1.93 2.7,3.37 3.48,5.34 1.69,4.3 3.11,8.7 4.76,13.02 2.33,6.1 4.86,12.13 7.18,18.24 4.62,12.22 8.45,24.77 13.9,36.65 1.71,3.72 4.24,7.03 6.79,10.24 0.41,0.51 1.33,2.25 1.11,1.63 -1.59,-4.36 -4.27,-8.26 -6.1,-12.53 -7.58,-17.59 -14.39,-35.99 -19.4,-54.48 -1.1,-4.04 -1.79,-8.19 -2.47,-12.33 -0.26,-1.57 -1.7,-10.17 -0.06,-12.7 0.37,-0.57 1.51,0.26 1.84,0.86 1.77,3.21 2.91,6.74 4.22,10.16 2.23,5.8 4.4,11.62 6.4,17.51 6.02,17.79 9.84,36.46 16.67,53.96 0.93,2.39 2.15,4.68 3.52,6.85 0.65,1.03 1.66,3.53 2.5,2.65 1.65,-1.75 -2.37,-10.45 -3.58,-13.96 -1.6,-4.67 -3.01,-9.42 -4.64,-14.08 -6.31,-18.05 -13.42,-35.33 -14.87,-54.61 -0.19,-2.57 0.12,-5.15 0.23,-7.72 0.12,-2.63 -1.5,-6.4 0.68,-7.88 0.67,-0.46 0.96,1.33 1.27,2.08 1.38,3.39 2.52,6.88 3.77,10.33 2.19,5.99 4.51,11.92 6.56,17.96 4.89,14.36 8.71,29.05 12.89,43.63 1.14,3.99 2.39,7.94 3.82,11.84 0.55,1.5 1.33,2.91 2.09,4.32 0.31,0.58 1.33,2.25 1.11,1.63 -3.18,-8.7 -7.53,-16.82 -10.41,-25.71 -4.13,-12.75 -6.91,-26.17 -9.29,-39.35 -1.24,-6.83 -2.06,-13.58 -2.4,-20.5 -0.14,-2.87 0.28,-5.77 -0.1,-8.62 -0.06,-0.47 -0.66,-1.8 -0.49,-1.35 8.09,22.13 20.09,42.38 25.01,65.66 0.63,3 1.22,6.01 1.77,9.02 0.56,3.07 2.55,11.11 0.96,12.37 -1.76,1.4 -2.78,-3.74 -3.19,-5.96 -1.7,-9.07 0.73,-20.04 0.53,-29.2 -0.41,-18.59 -3.06,-39 -9.48,-56.58 -1.04,-2.84 -1.34,-6.08 -3.12,-8.53 -2.22,-3.06 0.56,4.67 2.5,8.24 2.4,4.42 5.18,8.62 7.78,12.93 9.33,15.48 13.94,32.96 17.48,50.61 0.51,2.52 3.25,14.05 -1.85,14.42 -5.52,0.4 -1.38,-19.71 -1.1,-22.5 1.89,-18.6 1.87,-37.35 -5.8,-54.87 -1.78,-4.06 -5.45,-12.22 -9.78,-14.24 -2.5,-1.16 5.23,5.78 5.93,6.48 3.63,3.61 6.24,7.1 8.8,11.54 5.34,9.28 12.52,21.03 14.67,31.79 0.62,3.11 0.03,6.38 0.42,9.51 0.13,1.05 1.9,7.33 0.99,8.29 -1.09,1.16 -1.5,-2.9 -1.64,-4.49 -0.23,-2.51 -0.03,-5.04 -0.22,-7.55 -0.6,-8.3 0.59,-16.47 -0.41,-24.79 -0.52,-4.31 -5.66,-6.76 -8.31,-10.2 -1.58,-2.05 -2.47,-4.57 -3.97,-6.69 -0.4,-0.57 -5.89,-3.95 -3.76,-4.73 3.73,-1.36 14.2,13.6 16.03,16.02 13,17.15 18.26,39.3 8.96,59.32"
         id="path102" />
      <path
         class="cls-4"
         d="m 476.79,510.86 c 9.97,-10.55 19.56,-20.43 25.79,-33.85 2.07,-4.46 4.61,-8.43 6.43,-13.04 0.79,-1.99 2.4,-5.97 2.4,-5.97 0,0 -0.77,2.63 -1.1,3.96 -0.68,2.79 -1.39,5.57 -2.03,8.37 -1.55,6.81 -3.79,13.81 -8.22,19.29 -5.13,6.34 -10.94,12.83 -16.55,18.77 -0.44,0.46 -6.58,5.66 -6.48,5.93 0.57,1.56 2.73,-1.9 4,-2.99 2.29,-1.97 4.83,-3.65 7.1,-5.65 10.26,-9.02 17.27,-22.04 25.06,-33.08 2.45,-3.47 3.7,-6.81 4.68,-10.87 0.34,-1.38 0,-5.59 0.48,-4.25 3.35,9.16 -15.43,28.48 -21.38,34.78"
         id="path103" />
      <path
         class="cls-4"
         d="m 391.31,398.09 c 10.42,-14.21 35.42,-19.01 51.91,-19.48 5.11,-0.15 11.95,-2.75 16.9,-1.09 0.84,0.28 7.65,4.33 6.34,4.81 -0.99,0.36 -9.76,-2.05 -12.74,-1.45 -11,2.2 -20.28,8.51 -30.32,13.12 -5.54,2.54 -11.17,4.59 -16.89,6.68 -2.48,0.91 -1.9,0.49 -3.88,1.93 -0.78,0.57 -3.49,1.58 -2.53,1.43 14.49,-2.23 29.6,-4.74 43.93,-7.91 2.66,-0.59 8.59,-1.63 10.77,-3.94"
         id="path104" />
      <path
         class="cls-9"
         d="m 509.24,463.83 c 1.27,0 -4.88,-1.6 -5.55,-1.54 -6.38,0.57 -11.01,5.67 -13.95,10.79 -0.6,1.04 -2.67,4.35 -1.66,5.48 5.33,5.98 13.39,2.34 18.34,-2.34 1.32,-1.25 3.21,-1.97 4.3,-3.47 0.95,-1.3 3.36,-3.83 3.08,-5.65 -0.19,-1.22 -1.91,-2.42 -2.9,-2.99 -0.21,-0.12 -2.05,-0.29 -1.65,-0.29 z"
         id="path105" />
      <path
         class="cls-9"
         d="m 507.81,467.47 c 1.01,-1.76 -3.29,-1.22 -3.97,-1.13 -1.58,0.22 -13.43,6.55 -12.41,8.38 1.05,1.88 4.37,-0.92 5.22,-1.62 3.47,-2.87 5.38,-4.92 9.95,-5.83 0.41,-0.08 4.95,-1.06 5.09,-0.54 0.02,0.08 -3.35,1.05 -4.92,1.96 -3.35,1.95 -6.84,4 -10.09,6.08 -1.15,0.73 -2.23,1.55 -3.57,1.91 -0.37,0.1 -1.51,0.15 -1.15,0 3.87,-1.66 8.53,-0.88 12.18,-3.4 1.84,-1.27 3.5,-3.11 5.14,-4.64 0.14,-0.13 0.41,-0.42 0.41,-0.42 0,0 -2.49,3.47 -4,4.96 -2.03,2 -13.12,8.89 -15.06,4.38"
         id="path106" />
      <path
         class="cls-9"
         d="m 502.47,466.84 c 1.52,-2.06 0.01,-2.53 -2.14,-1.66 -2.16,0.87 -3.85,2.96 -5.42,4.6"
         id="path107" />
      <path
         class="cls-9"
         d="m 419.8,496.59 c -5.01,-2.68 -13.53,-1.49 -17.73,2.27 -2.1,1.88 -5.52,5.69 -2.35,8.56 5.89,5.34 17.67,2.9 23.17,-1.59 4.89,-3.99 2.89,-9.55 -2.95,-10.06 -1.93,-0.17 -3.89,0.36 -5.82,0.31"
         id="path108" />
      <path
         class="cls-9"
         d="m 418.16,498.54 c 0.2,-0.38 -4.81,-0.59 -5.32,-0.62 -3.97,-0.18 -7.9,0.8 -10.66,3.52 -0.2,0.2 -1.79,1.13 -1.63,1.66 0.24,0.79 5.58,-0.83 5.84,-0.9 4.87,-1.22 9.73,-2.04 14.67,-2.12 0.24,0 1.64,-0.46 1.83,-0.36 0.6,0.32 -1.29,0.42 -1.95,0.59 -1.5,0.39 -3.19,0.82 -4.62,1.4 -2.04,0.83 -13.58,4.49 -15.88,3.26 -0.61,-0.33 1.37,0.2 2.04,0.35 1.08,0.24 2.03,0.42 3.16,0.5 2.55,0.19 5.24,0.07 7.76,-0.31 2.09,-0.32 5.23,-0.52 6.69,-2.22 0.15,-0.18 2.89,-3.27 2.91,-3.21 0.22,0.73 -3.92,4.72 -4.37,5.1 -3.48,2.96 -13.41,5.82 -16.53,1.42"
         id="path109" />
      <path
         class="cls-10"
         d="m 470.19,576.44 c 0.66,22.94 7.77,46.74 15.56,68.04"
         id="path110" />
      <path
         class="cls-10"
         d="m 507.9,560.42 c 1.07,2.93 0.58,6.89 1.06,10.04 2.36,15.32 8.45,29.63 15.4,43.15 1.04,2.02 2.19,4.87 3.83,6.42"
         id="path111" />
      <path
         class="cls-10"
         d="m 467.04,364.67 c -1.64,-3.48 -4.69,-8.88 -4.6,-12.73 0.08,-3.25 1.09,-7.57 -0.32,-10.56"
         id="path112" />
      <path
         class="cls-10"
         d="m 475.83,367.51 c 2.69,-7.48 3.38,-14.61 4.85,-22.3 1.47,-7.69 3.66,-15.15 3.55,-23.09 -0.14,-9.97 -2.56,-19.56 -2.32,-29.63"
         id="path113" />
      <path
         class="cls-10"
         d="m 369.35,402.32 c 0.1,-4.32 -4.68,-11.36 -6.62,-15.03 -4.22,-7.98 -8.71,-16.34 -13.95,-23.68 -2.72,-3.8 -6.76,-6.45 -8.79,-10.75"
         id="path114" />
      <path
         class="cls-16"
         d="m 507.08,270.85 c 2.15,2.63 0.32,22 -1.37,26.71 -0.89,2.48 -0.6,5.19 -1.5,7.69 -1.02,2.85 -1.24,4.31 -1.23,4.3 2.49,-1.17 5.9,-23.56 6.08,-26.6 0.13,-2.23 0.1,-4.36 0.15,-6.59 0.02,-0.94 0.25,-1.9 0.07,-2.82 -0.05,-0.28 -0.41,-1.04 -0.36,-0.76 2.13,10.77 -0.7,21.19 -3.75,31.56 -3,10.19 -3.14,17.69 -10.23,26.7"
         id="path115" />
      <path
         class="cls-15"
         d="m 494.67,433.7 c -0.66,-0.76 -9.8,5.34 -4.13,7.99 3.9,1.82 10.8,-0.17 11.49,-5.11 0.64,-4.56 -7.15,-2.64 -7.36,-2.88 z"
         id="path116" />
      <path
         class="cls-15"
         d="m 491.83,439.92 c -2.33,-1.23 6.29,-4.81 7.51,-3.94 0.51,0.36 -1.12,0.55 -1.72,0.71 -1.46,0.41 -2.58,1.95 -3.67,2.9 -0.5,0.44 -2.51,0.73 -1.85,0.72 2.28,-0.06 4.17,0.13 6.11,-1.5 0.78,-0.65 0.72,-2.96 0.72,-2.96 0,0 0.29,2.03 -0.33,2.68 -1.98,2.09 -5.13,2.25 -6.78,1.38 z"
         id="path117" />
      <path
         class="cls-15"
         d="m 398.89,470.94 c -6.26,-1.58 -16.86,7.13 -7.89,10.41 3.59,1.32 9.07,-2.43 10.36,-5.77 1.11,-2.89 -2.08,-5.29 -4.68,-4.81 -1.65,0.3 -3.27,1.95 -4.85,2.62"
         id="path118" />
      <path
         class="cls-15"
         d="m 398.08,474.58 c 0.83,-0.58 -7.87,-1.02 -7.74,3.74 0.06,2.43 9.85,-1.88 8.59,-3.66 -0.51,-0.72 -1.58,-0.53 -2.3,-0.47 -5.1,0.42 -4.45,6.88 0.04,3.72"
         id="path119" />
      <path
         class="cls-15"
         d="m 499.34,433.98 c -0.78,0.87 -2.43,0.27 -3.65,0.39 -0.1,0.01 -0.24,0.19 -0.28,0.1 -0.21,-0.58 2.37,-0.68 2.63,-0.73 0.32,-0.06 1.25,-0.3 0.95,-0.19 -0.98,0.36 -2.52,0.18 -3.57,0.29 -0.34,0.04 -0.74,0.19 -1.06,0.31 -0.21,0.08 -0.79,0.36 -0.62,0.23 0.95,-0.75 2.12,-0.92 3.25,-0.95 0.44,-0.01 1.74,-0.17 1.32,-0.01 -0.75,0.28 -1.82,0.01 -2.62,0.1 -0.52,0.05 -1.58,0.84 -1.53,0.32 0.02,-0.21 0.22,-0.24 0.36,-0.29 1.22,-0.45 2.1,0.12 3.25,-0.09 0.07,-0.01 2.03,-0.15 1.84,0.11 -0.21,0.28 -0.12,0.24 -0.28,0.42 z"
         id="path120" />
      <path
         class="cls-15"
         d="m 452.84,481.44 c 0.23,4.19 6.02,20.29 10.84,20.89 3.39,0.42 7.37,-2.54 8.18,-5.51 0.35,-1.27 0.46,-2.66 0.8,-3.91 0.14,-0.52 0.27,-1.95 0.39,-1.74"
         id="path121" />
      <path
         class="cls-15"
         d="m 442.28,503.09 c -0.23,-0.39 0.67,2.32 1.19,3.05 0.75,1.05 5.01,4.14 6.24,3.9 5,-1 8.67,-3.4 9.34,-8.8 0.15,-1.16 0.72,-2.61 0.06,-3.76"
         id="path122" />
      <path
         class="cls-15"
         d="m 441.25,471.55 c -1.14,0.62 -1.57,1.34 -1.38,2.66 0.6,4.28 5.78,4.39 8.94,5.25 1.06,0.29 2.1,1.82 3.21,1.75 0.48,-0.03 1.51,-1.92 1.86,-2.31 1.37,-1.53 5.23,-9.31 3.67,-11.22 -2.41,-2.95 -14.16,2.7 -16.31,3.87 z"
         id="path123" />
      <path
         class="cls-15"
         d="m 444.03,473.76 c -1.34,-0.37 -0.92,1.85 -0.15,2.16 2.49,0.98 6.42,-2.23 3.47,-4.33 -2.78,-1.98 -2.89,4.5 0.18,5.15 3.12,0.66 4.06,-7.02 1.83,-6.71 -2.63,0.37 -2.07,6.83 0.91,6.66 3.2,-0.18 3.7,-3.53 3.42,-6.1 -0.09,-0.84 -0.2,-2.79 -0.94,-2.37 -1.01,0.58 -0.85,5.55 0.58,5.61 4.04,0.16 1.84,-7.79 -0.06,-4.94"
         id="path124" />
    </g>
    <g
       id="Demi">
      <path
         class="cls-18"
         d="m 736.89,398.31 c 0.13,0.09 0.94,0.54 0.66,0.93 -0.74,1.01 -16,-4.14 -17.69,-4.91 -11.51,-5.26 -24.08,-9.41 -34.87,-16 -15.08,-9.22 -30.42,-18.19 -44.36,-29.06 -4.01,-3.12 -7.16,-7 -10.74,-10.54 -2.59,-2.55 -5.98,-3.82 -8.41,-6.6 -1.91,-2.19 -3.32,-4.81 -5.36,-6.9 -5.77,-5.9 -11.01,-12.27 -16.81,-18.11 -1.83,-1.84 -4.73,-3.57 -5.5,-6.11"
         id="path125" />
      <path
         class="cls-18"
         d="m 598.14,270.68 c 3.39,0.58 6.88,-0.2 10.2,-0.72 8.39,-1.3 17.85,-2.51 26.32,-2.61 32.8,-0.38 66.13,-0.2 98.52,5.3 10.92,1.86 21.98,3.27 32.34,6.86 2.11,0.73 4.58,0.82 6.44,2.18"
         id="path126" />
      <path
         class="cls-18"
         d="m 456.66,319.97 c -0.11,-1.61 2.04,4.75 3.26,5.82 4.31,3.75 7.35,8.79 11.67,12.55 3.6,3.13 8.05,7.17 12.11,9.66 6.95,4.28 16.04,4.68 23.69,6.96 3.39,1.01 7.11,2.5 10.68,2.77 13.06,0.96 22.05,-1.79 33.13,-8.31 3.34,-1.97 7.16,-3.42 10.07,-6.1 3.4,-3.12 5.69,-7.31 9.14,-10.48 1.75,-1.61 3.65,-2.82 5.08,-4.8 5.6,-7.74 7.43,-18.19 10.9,-26.5"
         id="path127" />
      <path
         class="cls-18"
         d="m 453.04,317.07 c -1.91,1.05 -5.51,0.73 -7.71,1.21 -9.21,2.02 -18.42,3.77 -27.75,4.74 -22.19,2.3 -44.59,4.41 -66.88,3.37 -12.11,-0.57 -24.73,-1.73 -33.88,-10.24 -8.65,-8.04 2.27,-22.72 7.65,-28.51 14.57,-15.67 44.37,-17.03 64.31,-14.45 23.19,3 44.83,11.02 67.58,15.84"
         id="path128" />
      <path
         class="cls-18"
         d="m 471.6,211.49 c -4.88,-0.57 -17.09,-10.7 -21.22,-13.93 -15.32,-11.99 -33.6,-22.18 -43.52,-39.25"
         id="path129" />
      <path
         class="cls-18"
         d="m 496.51,200.89 c -4.11,-5.2 -5.51,-11.7 -8.06,-17.69 -3.69,-8.68 -8.32,-17 -12.28,-25.59 -2.34,-5.1 -6.84,-12.64 -11.12,-16.28 -2.96,-2.52 -7.75,-6.02 -9.69,-9.35"
         id="path130" />
      <path
         class="cls-18"
         d="m 407.29,149.18 c 2.2,-3.36 7.76,-2.47 10.98,-4.34 9.17,-5.33 30.02,-12.08 40.88,-10.81"
         id="path131" />
      <path
         class="cls-18"
         d="m 496.64,190.28 c 0.36,0.86 0.03,2.16 0.81,2.67 0.54,0.35 1.42,-1.64 1.67,-1.9 0.97,-0.99 2.29,-1.33 3.46,-2.01 4.81,-2.79 11.07,-6.91 16.8,-8.65 13.43,-4.08 29.38,-1.46 41.98,4.46 13.72,6.44 26.1,15 34.9,27.61 4.04,5.78 3.46,10.46 4.78,16.82 2.91,14.04 0.29,26.92 -7.65,39.03"
         id="path132" />
      <path
         class="cls-18"
         d="m 453.31,283.06 c -1.02,-4.98 0.83,-9.88 0.98,-14.85 0.23,-7.8 3.24,-13.26 5.21,-20.6 0.54,-2.02 0.04,-4.14 0.48,-6.2 1.53,-7.13 8.65,-19.9 14.38,-24.39"
         id="path133" />
      <path
         class="cls-18"
         d="m 419.42,155.09 c 0.15,3.29 8.72,9.37 10.98,11.76 3.92,4.16 6.96,9.11 11.04,13.08 7.75,7.54 17.67,12.81 26.13,19.5 5.18,4.1 9.83,8.78 15,12.9 3.43,2.74 3.54,2.79 7.24,5.07 0.49,0.3 1.77,1.35 1.49,0.85 -1.78,-3.17 -7.62,-6.3 -9.94,-9.3 -10.05,-12.99 -19.42,-26.64 -29.58,-39.54 -4.44,-5.64 -9.23,-9.85 -12.77,-16.17 -0.82,-1.46 -1.76,-2.85 -2.71,-4.23 -0.22,-0.32 -0.95,-1.14 -0.58,-1.03 2.22,0.63 6.87,8.46 8.4,10.17 1.54,1.73 3.02,3.51 4.6,5.2 9.42,10.09 17.64,22.08 28.12,30.9 5.77,4.85 10.14,10.07 14.49,16.22 0.74,1.05 1.45,2.11 2.13,3.2 0.42,0.67 1.66,2.66 1.15,2.06 -6.71,-7.84 -11.34,-20.49 -15.91,-29.62 -5.24,-10.47 -10.64,-21.33 -18.32,-30.3 -3.19,-3.73 -7.35,-5.94 -10.86,-9.13 -0.83,-0.75 2.11,0.78 3.1,1.31 1.01,0.54 2.02,1.08 2.99,1.71 2.1,1.37 4.09,2.89 6.14,4.33 9.26,6.49 15.96,17.44 22.38,26.68 0.61,0.88 5.72,10.9 3.71,11.44 -2.89,0.79 -6.57,-8.72 -7.19,-9.83 -4.32,-7.71 -8.76,-16.52 -14.17,-23.5 -4.66,-6.01 -22.62,-12.8 -30.29,-12.44 -2.85,0.13 -11.56,-1.1 -13.69,0.91 -0.23,0.22 -1.17,3.99 -1.13,4.01 3.14,1.94 17.22,4.7 20.92,4.17 0.15,-0.02 4.59,-0.84 4.23,-2.71 -0.51,-2.65 -8.08,-9.08 -8.11,-9.65 -0.03,-0.57 1.16,-0.06 1.72,0.05 1.23,0.25 2.41,0.68 3.61,1.02 4.83,1.36 3.18,1.04 8.14,1.86 9.31,1.54 14.73,-2.22 13.22,11.53"
         id="path134" />
      <path
         class="cls-18"
         d="m 401.66,308.68 c -16.77,6.48 -36.22,2.54 -53.45,0.53 -2.57,-0.3 -22.1,-5.71 -21.78,-2.68 0.42,3.98 11.22,4.36 13.02,4.54 3.26,0.32 6.53,0.4 9.8,0.6 14.25,0.86 28.41,1.03 42.68,0.77 2.93,-0.05 10.85,-0.84 14.67,0.24 0.97,0.27 -2.02,-0.01 -3.04,0.01 -2.77,0.07 -5.54,0.11 -8.31,0.26 -3.25,0.18 -6.5,0.42 -9.74,0.72 -15.33,1.4 -29.02,1.74 -44.06,-2.03 -2.43,-0.61 -6.45,0.34 -7.22,-2.04 -0.67,-2.07 4.24,-1.27 6.41,-1.22 2.83,0.06 5.65,0.47 8.48,0.66 13.04,0.87 17.49,1.14 31.34,1.04 5.11,-0.04 11.79,2.01 15.23,-1.77 1.18,-1.3 -2.66,-2.54 -4.36,-2.96 -3.11,-0.78 -6.28,-1.37 -9.46,-1.8 -15.03,-2.05 -30.05,0.36 -45.09,-1.45 -2.12,-0.26 -9.68,-1 -11.19,-4.89 -1.2,-3.11 6.82,-3.81 13.79,-4.34 18.1,-1.4 37.64,-0.94 55.74,0.56 4.08,0.34 8.13,0.96 12.21,1.28 0.57,0.04 2.27,0.21 1.72,0.05 -7.38,-2.08 -17.56,-0.47 -24.98,-0.55 -8.73,-0.09 -17.49,-0.04 -26.18,-0.88 -2.78,-0.27 -5.56,-0.7 -8.25,-1.46 -0.51,-0.14 -6.51,-2.01 -6.55,-4.45 -0.05,-3.05 4.89,-3.94 7.83,-4.72 3.6,-0.96 7.29,-1.67 10.99,-2.1 14.34,-1.67 28.35,0.76 42.4,3.29 0.16,0.03 10.07,1.15 9.52,3.12 -0.83,2.94 -5.84,1.93 -8.87,2.26 -3.11,0.34 -6.22,0.63 -9.34,0.83 -7.79,0.5 -28.03,3.16 -35.18,-1.26 -1.18,-0.73 2.5,-1.45 3.89,-1.5 3.3,-0.12 6.62,-0.04 9.91,0.2 8.88,0.63 24.78,2.72 32.96,4.53 10.86,2.41 21.24,6.73 32.11,9.06 7.42,1.59 15.42,0.45 22.69,2.5 0.3,0.08 -0.62,0.07 -0.92,0.18 -1.79,0.61 -3.56,1.27 -5.32,1.97 -3.13,1.25 -6.13,2.8 -9.32,3.87 -14.25,4.76 -27.55,5.88 -42.43,4.5 -3.23,-0.3 -6.46,-0.62 -9.69,-1 -1.93,-0.23 -6.27,-0.94 -4.82,-1.36 5.19,-1.51 10.8,-0.51 16.21,-0.63 14.01,-0.3 28.07,0.42 41.87,-2.49 2.57,-0.54 5.01,-1.55 7.55,-2.2 1.5,-0.39 5.34,0.48 4.58,-0.87 -1.16,-2.07 -4.75,0.28 -7.1,0.6 -3.58,0.48 -7.17,0.93 -10.77,1.3 -14.01,1.44 -20.4,2.3 -35.23,0.46 -4.18,-0.52 -10.8,-0.87 -11.59,-5 -0.52,-2.73 5.02,-2.71 7.78,-3.01 4.37,-0.46 8.78,-0.61 13.17,-0.62 9.62,-0.01 19.26,0.97 28.77,2.48 2.76,0.44 5.5,0.98 8.25,1.46 1.24,0.22 4.74,1.36 3.73,0.62 -8.71,-6.4 -24.88,-7.54 -34.92,-9.85 -3.25,-0.75 -6.5,-1.53 -9.75,-2.32 -0.41,-0.1 -1.61,-0.45 -1.2,-0.34 14.06,3.96 30.18,-0.14 44.75,2.66 1.89,0.36 7.59,1.87 9.41,3.52 0.29,0.27 -0.64,0.58 -1.03,0.58 -2.4,-0.04 -4.78,-0.42 -7.16,-0.72 -4.17,-0.53 -8.34,-1.1 -12.49,-1.79 -5.69,-0.94 -19.25,-1.85 -23.86,-7.6 -0.7,-0.87 2.15,-0.98 3.26,-0.81 3.31,0.49 6.59,1.19 9.86,1.91 4.07,0.91 8.12,1.93 12.15,2.99 7.68,2.03 15.34,4.48 22.43,8.06 1.93,0.97 3.7,2.23 5.57,3.3 0.62,0.35 2.6,0.88 1.89,0.97 -7.48,0.98 -17.02,-1.23 -24.53,-2.15 -0.57,-0.07 1.15,0 1.72,0.05 2.25,0.21 4.51,0.36 6.76,0.61 1.95,0.22 3.9,0.52 5.85,0.78"
         id="path135" />
      <path
         class="cls-18"
         d="m 463.84,314.08 c -2.36,8.36 17.91,17.46 23.16,20.83 2.93,1.88 5.43,6.18 8.84,5.53 0.39,-0.07 -0.31,-0.74 -0.58,-1.03 -1.18,-1.28 -2.38,-2.56 -3.74,-3.65 -1.95,-1.57 -4.06,-2.94 -6.14,-4.33 -8.18,-5.46 -17.62,-9.69 -24.8,-16.53 -1.65,-1.57 -2.9,-3.54 -4.09,-5.49 -0.23,-0.37 -0.49,-1.4 -0.06,-1.32 7.72,1.44 16.64,12.31 22.17,16.65 9.49,7.45 18.93,15.04 27.63,23.39 2.29,2.2 4.4,4.58 6.78,6.68 0.31,0.27 1.33,0.74 1.2,0.34 -1.42,-4.38 -6.56,-6.46 -9.83,-9.71 -12.85,-12.76 -26.79,-23.47 -38.97,-36.99 -5.28,-5.87 -8.26,-8.88 -10.65,-16 -0.38,-1.13 -1.28,-2.88 -0.3,-3.55 0.69,-0.47 7.84,5.53 12.18,9.07 13.58,11.07 27.35,21.83 41.01,32.8 3.6,2.89 7.24,5.76 11.08,8.33 1.62,1.08 6.46,3.69 5.51,1.99 -1.96,-3.49 -6.5,-4.67 -9.71,-7.07 -4.34,-3.25 -8.43,-6.83 -12.75,-10.1 -11.01,-8.32 -23.2,-15.02 -34.11,-23.49 -3.3,-2.56 -6.16,-5.69 -8.74,-8.96 -1.12,-1.42 -3.24,-5.9 -1.56,-5.21 6.83,2.82 15,10.16 19.93,13.85 12.81,9.61 25.95,18.76 38.82,28.28 4.46,3.3 8.63,6.99 13.15,10.21 1.87,1.33 3.85,2.54 5.97,3.42 0.29,0.12 0.85,-0.48 0.63,-0.69 -17.91,-17 -39.72,-29.4 -58.13,-45.86 -7.42,-6.63 -11.7,-10.55 -15.42,-19.08 -0.42,-0.97 -1.44,-2.91 -0.41,-3.15 1.65,-0.39 3.23,1.16 4.59,2.16 4.05,2.99 7.56,6.68 11.55,9.76 11.53,8.9 23.59,17.09 35.15,25.95 5.25,4.02 10.17,8.47 15.62,12.21 2.81,1.93 6,3.24 9.07,4.72 0.5,0.24 1.88,0.94 1.61,0.45 -2.84,-5.07 -9.31,-6.95 -13.96,-10.44 -5.43,-4.08 -10.52,-8.6 -15.91,-12.72 -13.06,-9.97 -26.6,-19.59 -37.92,-31.49 -2.05,-2.16 -3.63,-4.71 -5.35,-7.14 -0.45,-0.64 -1.84,-1.67 -1.15,-2.06 0.86,-0.48 1.87,0.66 2.7,1.19 3.59,2.31 7.1,4.73 10.51,7.3 19.04,14.36 37.22,29.88 55.84,44.78 3.16,2.53 6.24,5.19 9.59,7.47 0.69,0.47 2.18,1.48 2.41,0.68 0.32,-1.14 -0.93,-2.22 -1.73,-3.09 -3.21,-3.47 -6.64,-6.75 -10.23,-9.82 -18.74,-16.02 -40.42,-29.49 -57.79,-47.07 -1.6,-1.62 -8.54,-11.3 -7.09,-13.27 0.58,-0.78 2.01,0.23 2.81,0.79 3.72,2.61 7.11,5.67 10.57,8.61 5.16,4.39 10.1,9.04 15.28,13.41 11.85,9.99 23.4,20.38 35.85,29.61 4.82,3.57 9.95,7.14 15.73,8.77 0.27,0.08 0.42,-0.61 0.23,-0.8 -1.94,-1.93 -4.15,-3.57 -6.32,-5.25 -4.59,-3.55 -9.4,-6.83 -13.96,-10.44 -18.36,-14.56 -36.7,-28.48 -51.94,-46.28 -2.19,-2.56 -6.84,-4.93 -5.93,-8.17 0.19,-0.68 1.53,-0.23 2.12,0.16 2.91,1.93 5.32,4.52 8.1,6.62 4.25,3.21 8.82,5.97 12.98,9.29 16.68,13.33 32.33,27.86 47.81,42.52 2.57,2.44 5.24,4.78 7.99,7.02 0.78,0.64 2.77,2.59 2.58,1.6 -0.23,-1.22 -1.84,-1.67 -2.76,-2.51 -3.22,-2.93 -6.42,-5.88 -9.65,-8.79 -5.17,-4.66 -10.3,-9.38 -15.57,-13.93 -12.34,-10.63 -25.37,-20.64 -36.26,-32.76 -2.51,-2.79 -4.38,-6.1 -6.5,-9.2 -1.56,-2.28 -3.08,-4.58 -4.55,-6.92 -4.92,-7.84 6.02,0.6 7.34,1.64 3.77,2.96 7.17,6.35 10.74,9.53 4.28,3.8 8.45,7.71 12.81,11.41 5.31,4.51 10.94,8.66 16.2,13.24 8.77,7.62 17.25,17.35 27.75,22.99 0.35,0.19 -0.29,-0.75 -0.58,-1.03 -2.22,-2.17 -4.58,-4.2 -6.9,-6.28 -4.49,-4.03 -8.99,-8.04 -13.5,-12.04 -16.23,-14.39 -33.63,-28.17 -48.16,-44.35 -2.01,-2.24 -7.03,-7.43 -6.23,-11.72 0.11,-0.56 1.21,-0.21 1.72,0.05 2.83,1.42 5.57,3.06 8.15,4.9 3.81,2.71 7.29,5.85 10.97,8.73 14.38,11.23 27.2,23.1 40.11,36.01 3.83,3.83 7.82,7.5 11.5,11.48 2.31,2.49 4.18,5.35 6.44,7.88 0.19,0.21 1,0.42 0.8,0.23 -16.44,-16.5 -34.28,-31.36 -51.2,-47.37 -8.04,-7.61 -15.62,-15.82 -22.02,-24.85 -0.98,-1.38 -2.21,-2.58 -3.22,-3.94 -0.35,-0.47 -1.43,-1.36 -0.86,-1.54 0.8,-0.26 1.57,0.65 2.3,1.08 2.99,1.77 5.99,3.55 8.84,5.53 4.52,3.13 9.02,6.32 13.27,9.81 11.01,9.04 21.89,18.25 32.46,27.79 8.56,7.72 14.82,15.17 24.25,21.57 0.47,0.32 -1.04,-0.5 -1.49,-0.85 -2.52,-1.94 -4.97,-3.95 -7.41,-5.99 -4.34,-3.63 -8.67,-7.28 -12.93,-11.01 -12.04,-10.54 -23.17,-20.56 -34.25,-32.19 -4.85,-5.1 -9.27,-10.75 -12.55,-16.97 -0.76,-1.43 -2.69,-5.48 -1.28,-4.69 6.21,3.44 11.03,8.95 16.6,13.35 15.48,12.2 30.54,24.68 45.21,37.89 3.28,2.95 6.41,6.07 9.54,9.19 1.72,1.72 7.07,6.59 5,5.31 -7.78,-4.8 -13.47,-12.37 -20.4,-18.32 -12.08,-10.37 -24.65,-20.26 -35.68,-31.73 -6.48,-6.74 -9.27,-11 -13.52,-18.11 -0.81,-1.35 -3.88,-4.11 -2.3,-4.12 4.69,-0.02 8.62,3.85 12.45,6.55 4.04,2.83 7.93,5.86 11.77,8.95 13.06,10.52 26.33,21.29 37.75,33.61 2.31,2.49 4.19,5.34 6.44,7.88 0.82,0.93 2.53,1.29 2.76,2.51 0.19,0.99 -1.8,-0.96 -2.58,-1.6 -3.34,-2.7 -6.66,-5.43 -9.77,-8.39 -5.1,-4.85 -9.91,-9.99 -14.83,-15.02 -9.41,-9.62 -18.8,-19.42 -26.51,-30.44 -1.74,-2.49 -5.13,-8.18 -6.34,-11.32 -0.34,-0.87 -1.46,-2.79 -0.52,-2.75 5.88,0.28 9.91,6.42 14.47,10.15 3.38,2.76 6.79,5.49 10.28,8.1 15.2,11.37 28.03,24.26 42,36.98 0.23,0.21 -0.44,-0.45 -0.69,-0.63 -1.8,-1.27 -3.66,-2.44 -5.45,-3.71 -4.72,-3.32 -13.45,-9.62 -17.52,-13.17 -8.9,-7.78 -21.33,-16.79 -28.56,-26.26 -1.4,-1.84 -2.66,-4.41 -2.03,-6.64 0.42,-1.47 3.12,0.43 4.42,1.25 2.27,1.43 4.29,3.23 6.43,4.85 13.68,10.33 28.07,19.56 39.92,32.06 1.72,1.82 3.17,3.89 4.89,5.71 0.51,0.54 2.15,2.02 1.78,1.37 -2.16,-3.85 -6.37,-6.12 -9.54,-9.19 -10.25,-9.94 -21.53,-18.63 -31.21,-29.17 -3.24,-3.52 -6.16,-7.33 -8.98,-11.2 -0.35,-0.48 -1.16,-1.03 -0.86,-1.54 1.38,-2.42 5.39,1.5 7.91,2.67 2.82,1.3 5.61,2.68 8.38,4.1 13.72,7.01 24.95,15.22 36.06,25.77 1.89,1.8 3.91,3.47 5.92,5.14 1.15,0.96 4.4,1.5 3.56,2.74 -0.86,1.27 -2.96,-0.9 -4.3,-1.65 -3.42,-1.9 -6.73,-4.02 -9.93,-6.27 -10.84,-7.62 -19.26,-17.24 -29.08,-25.97 -2.97,-2.65 -6.4,-4.81 -9.08,-7.76 -1.27,-1.4 -2.4,-2.93 -3.51,-4.46 -0.35,-0.48 -1.43,-1.7 -0.86,-1.54 8.94,2.52 17.87,10.1 26.4,13.95 21.68,9.78 34.54,14.27 27.69,38.58"
         id="path136" />
      <path
         class="cls-18"
         d="m 520.16,349.47 c -0.94,-0.26 -2.09,-0.14 -2.81,-0.79 -0.23,-0.21 0.6,-0.16 0.92,-0.17 1.45,-0.07 2.9,-0.1 4.35,-0.07 1.85,0.04 3.7,0.31 5.56,0.27 3.54,-0.08 7.41,-0.43 10.59,-2.21 1.36,-0.76 2.69,-2.33 1.53,-3.9 -3.94,-5.34 -13.81,-3.61 -18.97,-1.88 -1.05,0.35 -6.4,1.99 -5.71,4.89 0.64,2.72 5.02,2.76 7.8,3.07 6.16,0.68 25.83,-0.96 30.12,-5.37 6.83,-7.02 -3.71,-28.95 -11.84,-27.17 -3.27,0.71 -6.98,6.66 -6.27,9.93 3.61,16.54 38.63,9.32 38.36,-6.95 -0.08,-4.99 -8.3,-6.34 -11.76,-5.92 -6.15,0.74 -19.87,6.44 -22.24,12.79 -0.74,1.98 4.75,2.82 8.83,2.49 9.7,-0.78 17.55,-6.71 23.5,-14.17 1.51,-1.9 2.67,-3.18 0.15,-5.16 -11.2,-8.79 -28.1,12.09 -19.07,18.45 11.18,7.88 22.72,-16.56 13.67,-23.88 -6.25,-5.05 -20.2,9.58 -6.15,9.53 1.68,0 3.34,-0.39 4.98,-0.76 1.77,-0.4 3.58,-0.77 5.21,-1.56 1.6,-0.78 3.25,-1.71 4.34,-3.11 7.22,-9.24 -16.57,-23.17 -21.55,-20.38 -1.92,1.07 2.3,3.98 4.2,5.08 5.09,2.97 28.48,13.53 29.39,1.79 0.83,-10.74 -12.25,-17.47 -20.98,-19.35 -2.75,-0.59 -7.36,-1.95 -8.42,0.66 -0.94,2.32 2.9,4.18 4.89,5.71 3.69,2.84 24.15,14.47 24.01,2.44 -0.03,-2.88 -2.95,-5.82 -4.84,-7.43 -1.81,-1.54 -7.25,-5.6 -10.16,-5.47 -16.43,0.77 -10.73,19.75 2.36,19.3 3.46,-0.12 8.54,-3.1 10.69,-5.65 6.65,-7.87 -8.53,-20.44 -14.17,-23.5 -1.84,-1 -3.9,-1.53 -5.91,-2.1 -0.68,-0.19 -2.34,-0.84 -2.12,-0.16 0.43,1.34 21.97,11.25 23.06,10.41 2.95,-2.26 -14.81,-26.08 -4.72,-24.73 6.76,0.9 -2.48,21.52 1.78,18.27 2.44,-1.87 7.06,-21.95 6.96,-26.2 -0.03,-1.45 -1.79,-6.14 -2.32,-7.15 -0.78,-1.51 -5.24,-10.06 -8.22,-9.25 -3.82,1.04 -1.05,4.64 1.05,5.5 0.79,0.32 9.46,1.8 9.46,1.8 0.8,2.08 -0.73,4.41 -1.41,6.54 -2.96,9.19 -6.71,13.52 -16.51,13.98"
         id="path137" />
      <path
         class="cls-18"
         d="m 590.42,290.86 c -0.69,-0.63 -2.97,-2.14 -2.07,-1.88 2.82,0.8 8.18,4.53 10.05,5.87 2.58,1.85 4.91,4.03 7.41,5.99 7.79,6.13 17.1,11.6 24.24,18.54 2.96,2.88 5.3,6.34 8.22,9.25 1.32,1.31 10.79,9.48 12,8.15 0.79,-0.87 -3.57,-4.19 -7.07,-7.19 -5.95,-5.1 -11.78,-10.34 -17.75,-15.41 -10.29,-8.72 -19.24,-17.64 -28.74,-27.17 -4.97,-4.99 -8.55,-7.41 -11.85,-13.31 -0.19,-0.34 0.33,0.73 0.58,1.03 1.15,1.4 2.38,2.74 3.62,4.06 2.09,2.22 4.18,4.45 6.38,6.57 2.92,2.8 5.96,5.46 8.96,8.16 13.21,11.87 27.05,22.49 41.42,32.91 2.63,1.91 5.18,3.95 7.93,5.7 1.31,0.84 2.72,1.53 4.19,2.05 0.54,0.19 1.78,0.62 1.72,0.05 -0.39,-3.72 -5.78,-4.78 -8.9,-6.84 -3.78,-2.5 -7.5,-5.08 -11.31,-7.52 -14.97,-9.58 -27.95,-17.31 -39.86,-30.74 -3.62,-4.08 -7.22,-7.65 -8.92,-12.92 -0.31,-0.96 -0.95,-2.67 -0.01,-3.04 2.13,-0.82 11.16,7.15 12.8,8.38 15.43,11.51 30.16,23.11 45.09,35.25 3.69,3 7.61,5.7 11.49,8.44 1.9,1.34 3.85,2.64 5.86,3.82 0.36,0.21 1.35,0.73 1.2,0.34 -1.44,-3.73 -6.33,-4.92 -9.71,-7.07 -3.56,-2.27 -7.14,-4.51 -10.62,-6.9 -10.29,-7.07 -18.99,-15.02 -27.41,-24.2 -2.32,-2.53 -9.06,-8.9 -8.41,-13.2 0.36,-2.34 4.73,1.03 6.71,2.33 2.98,1.95 5.7,4.28 8.61,6.33 11.86,8.35 23.44,16.09 34.35,25.72 2.33,2.06 4.53,4.26 6.9,6.28 0.44,0.37 1.67,1.4 1.49,0.85 -1.44,-4.44 -6.8,-6.39 -10.34,-9.42 -10.96,-9.37 -22.96,-17.32 -32.86,-27.9 -1.9,-2.03 -3.38,-4.42 -5.06,-6.63 -0.84,-1.1 -3.47,-2.29 -2.53,-3.31 0.87,-0.95 8.08,2.94 13.37,6.37 3.84,2.49 7.58,5.13 11.2,7.92 10.76,8.32 20.79,16.99 32.05,24.64 1.82,1.23 3.26,3.81 5.46,3.71 1.86,-0.09 -2.6,-2.7 -4.14,-3.77 -2.53,-1.75 -5.07,-3.49 -7.64,-5.19 -9.69,-6.4 -18.63,-11.82 -25.05,-21.8 -1.33,-2.07 -1.98,-4.53 -3.34,-6.58 -0.39,-0.58 -1.45,-1.97 -0.75,-1.95 2.39,0.07 9.64,3.91 10.1,4.15 11.06,5.85 20.39,13.16 30.03,21.04 2.64,2.16 8.58,7.02 9.42,6.56 0.98,-0.55 -1.53,-1.64 -2.36,-2.4 -1.7,-1.55 -3.46,-3.04 -5.23,-4.51 -4.97,-4.13 -9.86,-8.38 -14.59,-12.78 -1.82,-1.69 -3.76,-3.26 -5.52,-5.02 -0.84,-0.85 -1.47,-1.89 -2.24,-2.8 -0.2,-0.24 -0.92,-0.84 -0.69,-0.63 10.22,9.31 24.6,13.97 35.77,22.22 2.1,1.55 3.95,3.42 5.92,5.14 0.47,0.41 1.92,0.95 1.38,1.26 -3.27,1.83 -6.59,-3.59 -9.64,-5.75 -5.75,-4.08 -11.99,-8.54 -17.63,-12.77 -3.53,-2.65 -7.38,-5.34 -9.54,-9.19 -0.68,-1.21 -2.81,-3.42 -1.5,-3.89 4.8,-1.73 14.71,5.33 17.9,7.21 8.11,4.78 16,9.93 23.94,14.99 5.16,3.28 10.17,6.79 15.39,9.97 1.09,0.67 3.45,3.1 3.39,1.82 -0.06,-1.35 -9.91,-7.43 -11.49,-8.44 -9.67,-6.23 -19.79,-11.51 -27.11,-20.65 -1.23,-1.53 -3.42,-3.25 -2.88,-5.15 0.46,-1.63 3.16,1.27 4.59,2.16 2.58,1.61 5.22,3.11 7.75,4.79 3.19,2.11 6.23,4.44 9.42,6.56 3.99,2.65 8,5.29 12.11,7.75 4.96,2.97 9.92,6.82 15.66,7.45 0.59,0.06 -0.37,-1.23 -0.86,-1.54 -2.39,-1.53 -5.11,-2.47 -7.58,-3.87 -3.14,-1.78 -6.2,-3.7 -9.24,-5.64 -8.18,-5.22 -13.89,-10.04 -20.34,-17 -1.23,-1.33 -4.11,-2.31 -3.62,-4.06 0.68,-2.42 5.12,0.29 7.45,1.23 2.88,1.16 5.61,2.68 8.38,4.1 12.07,6.17 21.49,15.58 33.13,22.34 1.83,1.07 7.7,4.18 10.5,4.26 1.18,0.04 -0.72,-2.47 -1.73,-3.09 -2.19,-1.34 -4.54,-2.38 -6.77,-3.64 -6.72,-3.79 -13.96,-7.52 -19.86,-12.54 -1.42,-1.21 -4.63,-3.83 -2.99,-4.74 2.79,-1.56 6.29,1.34 9.23,2.6 11.15,4.79 20.24,11.82 30.42,18.11 0.64,0.39 -1.16,-0.95 -1.78,-1.37 -2.29,-1.56 -4.59,-3.1 -6.95,-4.56 -3.18,-1.98 -6.51,-3.71 -9.64,-5.75 -3.39,-2.2 -8.63,-4.13 -8.96,-8.16 -0.05,-0.62 1.22,-0.44 1.83,-0.35 1.51,0.22 3.01,0.65 4.42,1.25 2.01,0.85 17.68,9.95 18.14,9.45 0.35,-0.38 -6.73,-7.55 -7.71,-9.54 -0.27,-0.56 -0.89,-1.53 -0.35,-1.83 1.64,-0.92 7.7,2.91 9.41,3.52 0.45,0.16 8.65,1.35 8.66,1.57 0.06,1.39 -4.71,0.9 -5.5,1.05"
         id="path138" />
      <path
         class="cls-18"
         d="m 761.02,288.27 c 0.67,0.51 2.68,1.11 2.52,0.28 -0.04,-0.19 -3.07,7.81 -3.29,8.6 l -3.74,13.25 c -1.67,5.94 -4.93,11.74 -5.9,17.84 -0.82,5.13 2.96,9.47 1.48,14.72 -1.31,4.65 -7.15,5.79 -9.99,9.31 -3.2,3.96 -5.54,9.67 -7.51,14.35 -2.23,5.28 -4.1,11.53 -4.87,17.26 -0.13,0.96 0.43,4.38 -0.56,5.04 -2.97,1.97 -11.04,-1.98 -13.07,-2.82 -3.38,-1.39 -6.68,-2.98 -9.98,-4.55 -12,-5.69 -23.6,-11.83 -33.58,-20.74 -2.05,-1.83 -3.98,-3.8 -5.69,-5.94 -1.06,-1.33 -11.12,-16.88 -8.74,-8.96 3.01,10.02 17.75,16.44 26.02,19.9 15.66,6.57 31.97,11.66 46.76,20.12 0.88,0.5 -1.68,-1.13 -2.58,-1.6 -3.39,-1.76 -6.87,-3.33 -10.27,-5.06 -4.81,-2.46 -9.53,-5.08 -14.35,-7.51 -17.22,-8.7 -31.42,-17.9 -46.68,-29.63 -6.16,-4.73 -11.27,-7.16 -16.31,-12.83 -0.91,-1.03 -3.39,-3.58 -2.02,-3.6 2.43,-0.04 4.32,2.22 6.37,3.53 3.22,2.06 6.22,4.46 9.42,6.56 14.01,9.19 28.08,17.5 41.68,27.36 2.99,2.17 5.87,4.51 9.02,6.44 1.9,1.16 5.7,4.36 6.31,2.21 1.45,-5.15 -11.29,-10.41 -13.62,-11.64 -13.35,-7.08 -27.94,-10.37 -41.7,-16.53 -6.07,-2.72 -11.12,-5.82 -16.3,-9.8 -6.41,-4.93 -5.96,-6.2 -6.72,-5.36 -1.73,1.9 2.37,4.68 4.26,6.4 1.79,1.63 3.75,3.08 5.63,4.62 2.7,2.21 5.25,4.62 8.1,6.62 14.47,10.15 30.5,17.09 46.32,24.76 2.43,1.18 4.83,2.42 7.17,3.76 1.14,0.66 4.42,1.58 3.27,2.22 -1.08,0.6 -11.4,-4.2 -13.31,-5.05 -4.24,-1.89 -8.49,-3.76 -12.68,-5.74 -15.87,-7.52 -29.51,-15.45 -42.6,-27.18 -1.42,-1.27 -7.4,-6.07 -8.74,-8.96 -0.13,-0.28 0.62,-0.27 0.92,-0.18 2.39,0.8 4.7,1.8 7,2.84 4.5,2.03 8.95,4.18 13.37,6.37 19.76,9.8 36.84,22.92 55.86,33.95 3.42,1.98 7.05,3.6 10.67,5.18 1.37,0.6 5.42,0.68 4.47,-0.47 -3.75,-4.54 -9.63,-6.79 -14.47,-10.15 -7.83,-5.43 -21.43,-14.98 -29.17,-19.49 -5.89,-3.43 -12.48,-5.64 -18.14,-9.45 -5.49,-3.7 -11.5,-8.32 -12.6,-15.25 -0.06,-0.39 0.66,-0.72 1.03,-0.58 2.65,1.01 5.14,2.41 7.58,3.87 4.87,2.92 9.59,6.06 14.3,9.23 15.4,10.38 30.66,20.87 46.34,30.83 2.37,1.51 5.24,4.84 7.69,3.47 3.32,-1.86 -3.76,-5.51 -10.46,-9.02 -15.95,-8.35 -34.1,-13.98 -47.58,-26.42 -0.89,-0.82 -6.31,-9.87 -5.65,-10.69 0.79,-0.98 10.95,3.45 13.42,4.65 18.7,9.08 35.16,21.93 52.65,33.05 3.53,2.24 7.15,4.35 10.74,6.49 0.98,0.59 3.54,2.71 2.98,1.71 -2.99,-5.33 -10.13,-6.86 -15.39,-9.97 -5.8,-3.44 -11.83,-6.5 -17.51,-10.14 -12.07,-7.74 -24.12,-15.66 -34.97,-25.03 -3.68,-3.18 -8.63,-6.74 -8.86,-11.6 -0.03,-0.71 1.48,-0.14 2.12,0.16 3.1,1.48 5.99,3.37 8.95,5.13 4.96,2.94 9.84,6.02 14.81,8.94 11.2,6.58 22.55,12.93 33.3,20.22 3.57,2.42 6.85,5.25 10.39,7.7 2.21,1.53 5.86,3.41 6.08,3.02 1.42,-2.48 -3.72,-4.44 -6.09,-6.05 -3.6,-2.45 -7.31,-4.74 -11.02,-7.01 -14.09,-8.63 -31.92,-14.36 -43.11,-26.89 -0.87,-0.98 -1.84,-2.69 -1.1,-3.78 1.13,-1.66 8.66,3.62 13.66,6.89 15.22,9.94 30.69,19.41 45.87,29.4 3.44,2.26 7.01,6.84 10.96,5.69 2.08,-0.61 -1.46,-4.34 -3.17,-5.66 -2.76,-2.12 -5.83,-3.8 -8.84,-5.53 -4.45,-2.55 -8.99,-4.92 -13.54,-7.29 -14.6,-7.58 -21.53,-9.35 -33.3,-20.22 -1.66,-1.54 -2.62,-3.72 -3.57,-5.77 -0.18,-0.38 -0.08,-1.22 0.34,-1.2 14.57,0.44 34.9,15.58 46.25,23.45 3.4,2.35 6.71,4.83 10.11,7.18 0.83,0.58 3.33,2.28 2.58,1.6 -13.25,-12.06 -31.46,-18.68 -45.99,-29 -1.83,-1.3 -3.91,-2.71 -4.71,-4.8 -0.32,-0.83 1.58,-1.16 2.46,-1.04 3.3,0.46 6.55,1.43 9.63,2.72 4.45,1.86 8.6,4.38 12.86,6.66 8.98,4.8 17.76,9.97 26.46,15.26 1.35,0.83 5,3.74 4.08,2.45 -2.44,-3.41 -12.92,-8.91 -15.27,-10.37 -6.62,-4.13 -13.32,-7.79 -18.09,-14.2 -0.74,-1 -1.79,-3.06 -0.7,-3.66 3.64,-2.04 19.27,7.54 22.49,9.38 2.25,1.29 4.37,2.83 6.66,4.05 4.88,2.59 0.53,-9.82 -0.61,-10.14 -1.14,-0.32 1.1,2.67 0.3,3.55 -1.53,1.68 -21.49,-4.62 -23.46,-7.48 -0.32,-0.47 1.17,-0.1 1.72,0.05 2.01,0.57 4.02,1.21 5.91,2.1 2.72,1.28 5.38,2.7 7.86,4.38 5.75,3.91 15.59,10.34 19.13,16.66 0.2,0.36 -0.81,-0.2 -1.2,-0.34 -1.98,-0.68 -3.97,-1.31 -5.91,-2.1 -2.6,-1.07 -5.12,-2.33 -7.69,-3.47 -6.4,-2.83 -11.31,-4.47 -17.04,-8.71 -15.62,-11.54 3.61,-9.25 9.49,-5.99 5.23,2.9 9.25,7.24 12.07,12.5 6.74,12.57 -3.69,32.47 -15.22,38.61 -3.48,1.85 -6.1,0.59 -9.1,3.07 -2.43,2.01 -2.57,6.69 -3.52,9.41 -2.1,6 -3.05,10.48 1.03,16.32 2.64,3.78 20.82,9.47 19.66,2.51 -1.15,-6.93 -18.18,-15.53 -24.18,-17.22 -0.77,-0.22 -6.02,-1.96 -5.61,1.45 0.83,6.93 10.78,13.01 16.78,14.27 5.28,1.1 10.2,-1.71 6.91,-7.59 -1.51,-2.69 -3.83,-4.84 -5.75,-7.26 -0.74,-0.94 -1.5,-1.87 -2.24,-2.8"
         id="path139" />
      <path
         class="cls-21"
         d="m 401.73,152.04 c 4.01,1.38 6.13,4.63 11,4.79 12.8,0.41 24.04,-5.87 35.75,-10.17 7.78,-2.85 16.61,-4.94 23.23,-10.22 4.07,-3.24 22.57,-9.95 17.83,-18.35 -3.02,-5.35 -21.15,-3.96 -26.61,-3.78 -15.81,0.52 -30.15,-0.39 -45.11,4.73 -4.28,1.47 -8.93,2.85 -12.6,5.78 -5.38,4.29 -7.93,12.44 -5.65,19.09 0.4,1.15 2.49,4.18 3.46,4.93 0.65,0.49 2.6,0.58 2.11,1.23 -1.76,2.3 -5.22,-3.51 -4.23,-4.18 0.76,-0.52 1.29,5.01 2.16,4.89 0.61,-0.08 -1.03,-0.77 -1.26,-1.34 -0.11,-0.28 -2.04,-4.54 -1.44,-4.34 0.63,0.22 0.58,3.29 0.96,3.97 0.21,0.37 1.93,1.52 1.92,1.47 -0.09,-0.66 -1.71,-1.49 -1.88,-2.77 -0.09,-0.71 -0.59,-2.8 -0.49,-2.09 0.24,1.83 0.65,3.59 1.95,4.92 0.11,0.11 0.41,0.33 0.27,0.4 -1.7,0.83 -4.4,-7.3 -2.25,-8.76"
         id="path140" />
      <path
         class="cls-21"
         d="m 406.78,141.44 c 0.66,4.9 11.04,4.78 14.6,4.31 5.35,-0.71 9.59,-3.87 14.57,-5.61 6.5,-2.27 12.97,-4.14 19.39,-6.69 5.11,-2.03 9.9,-5.65 14.98,-7.4 1.9,-0.65 4.08,-1.16 6.09,-1.25 0.15,0 3.21,-0.21 3.21,-0.21 -0.87,-1.79 -11.8,-0.98 -13.27,-0.82 -12.55,1.37 -26.46,2.6 -38.33,7.06 -4.92,1.85 -10.02,4.19 -14.64,6.7 -1.29,0.7 -4.19,2.32 -3.02,3.21 1.67,1.28 13.16,-9.19 15.46,-10.26 10.5,-4.9 28.37,-6.76 40.05,-7.08 2.61,-0.07 8.05,-1.08 10.46,0.76"
         id="path141" />
      <path
         class="cls-21"
         d="m 410.09,131.51 c -3.74,-2.89 8.1,-7.26 10.46,-8.09 6.4,-2.24 13.16,-2.62 19.84,-3.3 1.85,-0.19 3.71,-0.31 5.57,-0.31 0.72,0 1.43,-0.07 2.15,-0.07 0.36,0 1.36,-0.17 1.09,0.07 -2.31,2.03 -9.18,1.52 -12.03,2.04 -1.69,0.31 -3.37,0.67 -5.03,1.1 -3.41,0.9 -6.83,1.8 -10.19,2.87 -4.21,1.34 -9.37,7.61 -11.86,5.68 z"
         id="path142" />
      <path
         class="cls-8"
         d="m 652.87,326.15 c 6.87,5.76 13.61,8.33 21.21,12.68 19.5,11.16 40.06,16.99 61.49,23.04"
         id="path143" />
      <path
         class="cls-8"
         d="m 665.48,283.82 c 2,1.82 5.58,0.54 7.88,0.55 7.48,0.01 14.89,0.84 22.32,1.61 8.91,0.92 16.96,4.63 25.61,6.55 11.94,2.66 24.32,5.52 36.03,8.82"
         id="path144" />
      <path
         class="cls-8"
         d="m 477.22,191.1 c -0.15,2.35 -8.23,-4.3 -8.91,-4.81 -7.18,-5.34 -14.8,-13.14 -17.16,-22.12"
         id="path145" />
      <path
         class="cls-8"
         d="m 373.05,312.67 c 5.96,-1.57 12.04,-1.61 18.02,-2.76 4.07,-0.78 7.56,-2.61 11.82,-2.86 4.3,-0.26 8.53,0.77 12.79,0.83 9.01,0.13 17.69,-1.72 26.83,-1.13"
         id="path146" />
      <path
         class="cls-8"
         d="m 388.67,293.28 c 2.84,1.66 8.26,0.28 11.46,0.44 5.73,0.29 11.8,0.4 17.43,1.58"
         id="path147" />
      <path
         class="cls-14"
         d="m 540.98,214.67 c -3.67,1.13 -1.69,17.32 6.64,11.66 1.17,-0.8 2.15,-3.05 2.73,-4.32 0.64,-1.4 0.83,-2.51 0.86,-4.03 0.25,-10.72 -13.04,-7.24 -10.54,0.85"
         id="path148" />
      <path
         class="cls-14"
         d="m 545.51,215.6 c -3.78,-0.21 -4.52,7.67 -1.25,9.01 2,0.82 5.05,-9.5 0.57,-10.4 -3.18,-0.64 -3.38,7.97 -1.09,9.18 2.43,1.28 4.65,-4.42 4.41,-5.93 -0.25,-1.57 -2.36,-1.85 -2.64,-1.87 z"
         id="path149" />
      <path
         class="cls-14"
         d="m 544.52,220.51 c 0.27,-0.11 0.19,-4.56 1.9,-4.18 1.34,0.3 0.68,2.68 0.36,3.3 -1.32,2.58 -5.22,2.08 -2.27,0.88 z"
         id="path150" />
      <path
         class="cls-14"
         d="m 513.44,310.98 c -2.96,2.49 -3.81,13.08 2.21,12.74 7.47,-0.41 9.65,-11.55 4.19,-15.51 -6.41,-4.65 -8.98,8.8 -6.46,13.06"
         id="path151" />
      <path
         class="cls-14"
         d="m 518.29,311.05 c -3.04,-0.89 -3.39,9.01 -1.24,8.89 3.43,-0.19 3.96,-8.57 0.9,-9.04 -3.3,-0.51 -2.57,8.63 -0.45,9.32 2.39,0.77 5.17,-11.98 -1.71,-6.19"
         id="path152" />
      <path
         class="cls-14"
         d="m 559.23,276.07 c -3.93,-3.19 -6.05,-5.43 -8.41,-9.81 -0.56,-1.05 -1.77,-2.41 -3.15,-2.11 -2.01,0.43 -4.79,12.85 -5.34,15.16 -0.18,0.77 0.73,2.67 1.37,3.1 3.14,2.13 7.39,-2.39 9.99,-3.8 0.94,-0.51 2.47,-1.53 3.56,-1.65 0.76,-0.08 2.53,0.44 2.27,-0.27 -0.19,-0.51 0.02,-0.37 -0.29,-0.63 z"
         id="path153" />
      <path
         class="cls-14"
         d="m 545.03,279.9 c 3.51,3.3 1.65,-2.82 2.11,-3.15 0.69,-0.49 4.46,0.71 3.47,1.76 -1.64,1.75 -4.33,-1.65 -3.32,-3.51 1.44,-2.68 7.63,-0.85 6.9,2.19 -0.59,2.46 -10.1,-3.77 -6.72,-7.22 1.42,-1.45 6.74,1.62 7.2,3.32 0.04,0.14 -0.05,0.36 -0.19,0.41 -2.35,0.87 -7.18,-2.65 -7.25,-4.99 -0.06,-1.83 5.55,-0.02 3.44,0.76"
         id="path154" />
      <path
         class="cls-14"
         d="m 553.16,274.42 c 4.09,1.88 8.8,2.45 13.1,3.74 4.08,1.22 8.07,3.49 12.39,2.42 3.29,-0.82 9.63,-3.84 7.9,-8.55 -0.72,-1.96 -2.42,-5.26 -4.02,-6.63 -0.95,-0.81 -2.69,-1.32 -3.42,-2.23"
         id="path155" />
      <path
         class="cls-14"
         d="m 566.59,278.15 c 4.19,1.93 11.64,2.48 14.08,6.98 3.82,7.08 -5.06,17.27 -12.21,13.97"
         id="path156" />
      <path
         class="cls-7"
         d="m 569.12,224.23 c -2.32,3.97 -5.43,9.12 -3.16,14.17 1.43,3.2 8.81,10.38 12.34,5.93 2.33,-2.94 6.08,-9.82 5.86,-13.67 -0.58,-9.89 -5.41,-15.27 -13.92,-8.35 -1.65,1.34 -2.08,3.92 -3.1,5.66"
         id="path157" />
      <path
         class="cls-7"
         d="m 572.52,225.36 c -5.39,1.41 -6.08,15.1 -1.9,16.4 4.46,1.39 8.08,-12.69 5.83,-15.82 -2.54,-3.53 -5.33,-0.12 -6.2,2.57 -0.96,2.96 -1.24,9.56 1.02,12.13 1.59,1.81 4.45,-2.57 4.93,-3.31 1.73,-2.7 4.5,-11.35 -0.58,-12.52 -7.04,-1.62 -5.81,16.07 -1.65,16.34 4.12,0.27 5.41,-12.49 5.27,-14.86 -0.01,-0.22 -0.35,-2.49 -1.35,-2.07 -2.12,0.89 0.72,5.24 0.89,6.5 0.39,2.79 1.35,11.41 -2.26,12.99 -1.89,0.83 -3.39,-2.22 -3.49,-3.53 -0.16,-2.04 2.71,-15.48 3.77,-15.95 1.17,-0.53 2.53,2.35 2.78,2.91 1.37,3.06 0.16,9.41 -4.17,9.31 -6.73,-0.15 -9.34,-12.16 -2.63,-14.14 9.88,-2.91 8.97,13.85 2.97,13.91 -5.66,0.06 -4.22,-13.74 -0.08,-12.65 6.36,1.68 -0.26,20.69 -3.14,21.45"
         id="path158" />
      <path
         class="cls-7"
         d="m 543.64,310.16 c 0.18,-2.68 -6.41,6.73 -6.96,7.89 -2.82,5.9 0.17,11.65 6.37,12.48 5.16,0.7 7.43,-2.47 9.86,-6.63 1.22,-2.09 3.39,-4.37 3.75,-6.78 0.3,-2.02 1.08,-5.15 0.55,-7.15 -0.92,-3.5 -6.7,-4.39 -9.46,-3.18 -5.3,2.32 -10.73,9.96 -7.82,15.93"
         id="path159" />
      <path
         class="cls-7"
         d="m 542.5,323.81 c -2.81,0.74 0.89,-12.51 5.04,-10.08 3.86,2.26 2.27,14.64 -3.4,12.75 -6.75,-2.25 -1.83,-18.02 3.88,-15.03 4.9,2.56 1.35,17.87 -3.82,17.85 -9.55,-0.04 -6.1,-20.39 3.72,-17.69 5.06,1.39 0.45,18.63 -5.94,14.9 -2.29,-1.34 -0.65,-5.45 -0.11,-7.12 0.64,-2 1.8,-4.88 3.15,-6.49 6.19,-7.37 9.13,6.26 4.34,9.38 -1.54,1 -2.06,-3.34 -1.89,-5.17 0.11,-1.27 1.65,-10.02 4.64,-9.03 2.31,0.76 2.7,9.5 1.1,10.9 -1.76,1.55 -3.79,-6.42 -3.54,-7.84 0.17,-0.94 1.63,-2.88 2.03,-2.02 1.6,3.48 -0.48,15.8 -5.46,15.18 -4.82,-0.6 -2.33,-11.02 1.35,-11.81 4.48,-0.97 0.28,13.26 -2.28,10.84 -2.29,-2.16 1.42,-11.75 3.29,-11.11 1,0.34 -0.09,14.05 -1.02,10.51"
         id="path160" />
    </g>
  </g>
</svg>
